<?xml version="1.0" encoding="UTF-8"?>
<!DOCTYPE svg PUBLIC "-//W3C//DTD SVG 1.1//EN" "http://www.w3.org/Graphics/SVG/1.1/DTD/svg11.dtd">
<!-- Creator: CorelDRAW -->
<svg xmlns="http://www.w3.org/2000/svg" xml:space="preserve" width="210mm" height="190mm" style="shape-rendering:geometricPrecision; text-rendering:geometricPrecision; image-rendering:optimizeQuality; fill-rule:evenodd; clip-rule:evenodd"
viewBox="0 0 210 190"
 xmlns:xlink="http://www.w3.org/1999/xlink"
 data-name="Layer 1">
 <defs>
  <style type="text/css">
   <![CDATA[
    .fil76 {fill:#152A48}
    .fil75 {fill:#18345F}
    .fil63 {fill:#1C1E23}
    .fil68 {fill:#202738}
    .fil70 {fill:#2D3244}
    .fil67 {fill:#394158}
    .fil83 {fill:#394255}
    .fil80 {fill:#78ACD1}
    .fil78 {fill:#8BBEE6}
    .fil71 {fill:#8FB4DD}
    .fil72 {fill:#90C2E9}
    .fil81 {fill:#A3D6F5}
    .fil88 {fill:#CB321E}
    .fil89 {fill:#D75E4A}
    .fil84 {fill:#DB411A}
    .fil87 {fill:#DD4E33}
    .fil77 {fill:#DF9B5E}
    .fil86 {fill:#E06859}
    .fil85 {fill:#E25742}
    .fil73 {fill:#E4BF86}
    .fil65 {fill:#E8F5FD}
    .fil64 {fill:#EFAD7D}
    .fil79 {fill:#EFBA70}
    .fil69 {fill:#F4BD8F}
    .fil66 {fill:#F8D3AC}
    .fil82 {fill:white}
    .fil57 {fill:#00933A}
    .fil11 {fill:#152A48}
    .fil10 {fill:#18345F}
    .fil27 {fill:#1A3026}
    .fil29 {fill:#1C1E23}
    .fil32 {fill:#1D2533}
    .fil26 {fill:#1E3B2F}
    .fil41 {fill:#202735}
    .fil21 {fill:#202738}
    .fil52 {fill:#232324}
    .fil51 {fill:#23233E}
    .fil25 {fill:#26473A}
    .fil42 {fill:#2A6CA5}
    .fil14 {fill:#2D3244}
    .fil47 {fill:#303B53}
    .fil28 {fill:#315246}
    .fil30 {fill:#394158}
    .fil20 {fill:#394255}
    .fil49 {fill:#466FA8}
    .fil50 {fill:#51545F}
    .fil22 {fill:#545678}
    .fil1 {fill:#5F1F1C}
    .fil40 {fill:#66C0EF}
    .fil53 {fill:#67885A}
    .fil15 {fill:#6BA3D3}
    .fil38 {fill:#73B442}
    .fil33 {fill:#74B7CB}
    .fil6 {fill:#78251F}
    .fil16 {fill:#7FA9D6}
    .fil7 {fill:#8C2920}
    .fil17 {fill:#8FB4DD}
    .fil18 {fill:#90C2E9}
    .fil61 {fill:#962828}
    .fil39 {fill:#ACD687}
    .fil31 {fill:#C1D5EE}
    .fil54 {fill:#C1E3F4}
    .fil60 {fill:#CA513E}
    .fil5 {fill:#D45137}
    .fil8 {fill:#D75E4A}
    .fil23 {fill:#DB411A}
    .fil55 {fill:#DE4336}
    .fil3 {fill:#DF9B5E}
    .fil24 {fill:#E25742}
    .fil45 {fill:#E36E22}
    .fil34 {fill:#E4EBF7}
    .fil46 {fill:#E56E14}
    .fil59 {fill:#E97E42}
    .fil44 {fill:#EC8D41}
    .fil2 {fill:#ECA767}
    .fil0 {fill:#EFBA70}
    .fil43 {fill:#F2A800}
    .fil36 {fill:#F3F9FE}
    .fil12 {fill:#F4BD8F}
    .fil4 {fill:#F5BD7F}
    .fil56 {fill:#F5C700}
    .fil13 {fill:#F8D3AC}
    .fil35 {fill:#FBFDFF}
    .fil9 {fill:#FEF2DB}
    .fil19 {fill:white}
    .fil48 {fill:url(#id0)}
    .fil58 {fill:url(#id1)}
    .fil37 {fill:url(#id2)}
    .fil74 {fill:url(#id3)}
    .fil62 {fill:url(#id4)}
   ]]>
  </style>
  <linearGradient id="id0" gradientUnits="userSpaceOnUse" x1="103.648" y1="47.1525" x2="103.211" y2="2.1989">
   <stop offset="0" style="stop-color:#7493F7"/>
   <stop offset="1" style="stop-color:white"/>
  </linearGradient>
  <linearGradient id="id1" gradientUnits="userSpaceOnUse" x1="43.9018" y1="58.1326" x2="63.1298" y2="25.8686">
   <stop offset="0" style="stop-color:#7493F7"/>
   <stop offset="0.258824" style="stop-color:#B9C9FB"/>
   <stop offset="1" style="stop-color:white"/>
  </linearGradient>
  <linearGradient id="id2" gradientUnits="userSpaceOnUse" xlink:href="#id0" x1="164.673" y1="58.5953" x2="140.294" y2="27.2261">
  </linearGradient>
  <linearGradient id="id3" gradientUnits="userSpaceOnUse" xlink:href="#id1" x1="18.8613" y1="78.676" x2="18.317" y2="57.3731">
  </linearGradient>
  <linearGradient id="id4" gradientUnits="userSpaceOnUse" xlink:href="#id1" x1="188.074" y1="82.8317" x2="188.074" y2="65.3731">
  </linearGradient>
 </defs>
 <g id="Layer_x0020_1">
  <metadata id="CorelCorpID_0Corel-Layer"/>
  <g id="_136985064">
   <path id="_136986168" class="fil0" d="M101.593 126.391l7.9041 -2.6113c3.5229,-1.1642 6.3105,-3.8884 7.5571,-7.3819l0.0203 -0.0559c0,0 1.3642,-6.7421 -1.0914,-3.4943 -3.1554,4.1737 -11.5743,6.1947 -11.5743,6.1947l-2.8158 7.3487z"/>
   <path id="_136986048" class="fil1" d="M66.6678 77.7764c1.0287,-0.1401 2.1936,0.3096 3.3145,1.0763 0.0865,-0.3588 0.1451,-0.7254 0.1451,-1.1034 0,-3.3432 -3.5189,-6.046 -7.8658,-6.0466l0 5.0167c1.9692,-0.1134 3.6613,0.2181 4.4062,1.057z"/>
   <path id="_136986360" class="fil1" d="M62.2616 71.702l-0.0008 0c-4.3415,0 -7.8649,2.704 -7.8649,6.0469 0,0.5599 0.1315,1.0914 0.3169,1.6061 2.1429,-1.6289 5.0703,-2.4932 7.5488,-2.636l0 -5.017z"/>
   <polygon id="_136986624" class="fil0" points="62.3413,133.432 62.3413,133.62 62.3413,134.019 62.3413,134.013 62.3413,132.587 66.6882,117.198 62.2616,112.765 "/>
   <path id="_136986672" class="fil2" d="M62.3413 133.432l-0.0797 -20.667 -3.0842 -3.0893c-1.0499,-0.3898 -2.0226,-0.9745 -2.8953,-1.7244l0 4.7925 6.0592 19.8434 0 0.8448z"/>
   <path id="_136986504" class="fil3" d="M59.1774 109.676l3.0842 3.0893 0 -2.509c-1.0744,-0.0008 -2.1064,-0.2177 -3.0842,-0.5803z"/>
   <path id="_136986576" class="fil3" d="M62.2616 110.256l0 2.509 4.4266 4.4323 1.1921 -4.4891 0 -4.4748c-1.6167,1.266 -3.5402,2.0228 -5.6144,2.0228l-0.0043 -0.0002z"/>
   <path id="_136986264" class="fil4" d="M62.2616 110.256l0 -22.8729 -0.0008 0.0017c-3.1046,2.3726 -9.7772,4.8488 -11.1237,5.3352l0.2145 0.7261 -0.4713 -0.6338c-0.4083,-0.5752 -0.8337,-0.9132 -1.1218,-0.9132l-0.0652 0.0363c-0.3066,0.3167 -0.3549,1.8549 -0.1611,4.5798 0.1722,2.3875 1.6686,4.6315 2.4946,4.6315l0.1914 -0.073 0.1746 -0.1297 0.0459 0.2094c0.5608,2.8292 1.9633,5.1839 3.8434,6.798 0.8729,0.7499 1.8454,1.3346 2.8953,1.7243 0.9778,0.3627 2.0098,0.5796 3.0842,0.5803z"/>
   <path id="_136986000" class="fil2" d="M64.4401 84.7774c-0.5888,1.0163 -1.3083,1.9424 -2.1785,2.6051l0 22.8729 0.0043 0c2.0742,0 3.9977,-0.7564 5.6144,-2.0225 2.0597,-1.6135 3.6087,-4.0753 4.2017,-7.0801l0.0486 -0.2094 0.1803 0.1297c0.0533,0.0432 0.1126,0.0646 0.2076,0.073 0.8101,0 2.3028,-2.2438 2.4757,-4.6315 0.1959,-2.7252 0.1425,-4.2628 -0.1618,-4.5798l-0.0694 -0.0366c-0.2829,0 -0.7033,0.3382 -1.1203,0.9068l-0.465 0.6405 0.2204 -0.7566c0,0 -3.397,-2.911 -7.1329,-5.4277 -0.9744,-0.6565 -1.5242,-1.5394 -1.8251,-2.4838z"/>
   <path id="_136985928" class="fil5" d="M100.607 121.718l-12.5159 11.7888c0,0 -7.9259,-20.095 -11.6811,-20.095l-8.5299 -0.7043 -1.1921 4.4892 -4.3469 15.3899 -0.0185 45.0131 18.5174 -0.5355c-1.8446,-16.1372 -2.5522,-11.8479 -8.1022,-23.3445l3.7765 -17.8244 12.614 13.3937 15.4949 -23.2563 -4.0162 -4.3147z"/>
   <path id="_136985688" class="fil6" d="M66.8066 77.9159c0,0 -0.6058,3.8304 -2.3665,6.8628 0.3009,0.9439 0.8507,1.8273 1.8251,2.4835 3.7359,2.5165 7.1329,5.4277 7.1329,5.4277 0,0 1.8063,-4.9176 1.2624,-7.5485 -0.4091,-1.9941 -2.4531,-4.7684 -4.6782,-6.2885 -1.1209,-0.7669 -2.2861,-1.2164 -3.3145,-1.0764l0.1388 0.1394z"/>
   <path id="_136985448" class="fil7" d="M52.504 81.848c-3.0952,5.7155 -1.6237,10.9646 -1.6237,10.9646 0,-0.0003 0.1026,-0.0365 0.2568,-0.0926 1.3465,-0.4863 8.0191,-2.9626 11.1237,-5.3357l0.0008 -0.0009 0.0009 -10.6643c-2.4794,0.1427 -5.4068,1.0071 -7.5497,2.636 -0.9176,0.6968 -1.6878,1.5284 -2.2088,2.4929z"/>
   <path id="_136985664" class="fil7" d="M66.6678 77.7764c-0.7449,-0.8391 -2.437,-1.1704 -4.4053,-1.057l0 10.664c0.8695,-0.663 1.5887,-1.5891 2.1776,-2.6048 1.7607,-3.0324 2.3665,-6.8626 2.3665,-6.8626l-0.1388 -0.1396z"/>
   <path id="_136985568" class="fil8" d="M62.3413 135.436l0 -1.8161 0 -0.188 0 -0.8448 -6.0592 -19.8434 -0.0101 -0.0356 -10.0484 2.4735c-8.4317,7.0784 -10.3373,42.8304 -10.3373,42.8304l-1.6667 20.5855 4.6476 -2.0632 0.2565 -0.1143 6.0856 -22.6142 3.0614 -18.3698 3.7697 18.0149c-5.6058,11.7362 -7.9808,11.3955 -9.0001,23.6141l17.9377 0.5353 1.3448 0 0.0185 -42.1643z"/>
   <polygon id="_136985352" class="fil9" points="113.134,126.033 105.254,124.825 108.103,106.236 115.984,107.444 "/>
   <path id="_136984944" class="fil0" d="M106.985 116.11c1.5235,-0.9895 3.7933,-1.7642 2.5656,-2.9834 0,0 -5.7688,0.3305 -7.5252,5.0629 -1.48,3.9729 -0.8159,3.4164 -1.4183,3.529l4.0162 4.3146c0,0 0.8305,-8.9333 2.3617,-9.9231z"/>
  </g>
  <path class="fil10" d="M124.161 184.951l14.0595 0 1.6245 -20.0179c0.742,-9.4646 -16.5035,-35.8208 -16.5035,-35.8208l-0.0006 45.0901 0.8201 10.7486z"/>
  <path class="fil11" d="M119.148 184.951l-11.0843 0 -1.6267 -20.0179c-0.7421,-9.4646 16.9044,-35.8208 16.9044,-35.8208l-0.0006 46.0813 -4.1928 9.7574z"/>
  <polygon class="fil12" points="131.549,112.3 123.34,116.271 123.34,97.1219 128.496,97.1219 "/>
  <polygon class="fil3" points="114.734,112.3 123.34,116.271 123.34,97.1219 117.786,97.1219 "/>
  <path class="fil12" d="M123.34 102.329l0 0.0419 0 -31.5962 -1.957 0c-4.7966,0 -9.9274,5.0597 -9.9274,9.3457l1.6913 11.8151c0.6979,4.8655 4.9543,8.9238 10.1931,10.3935z"/>
  <path class="fil12" d="M114.098 93.1739l-0.0188 0c-1.0138,0 -1.885,-0.8502 -2.0728,-2.0232l-0.8911 -5.5032c-0.1232,-0.6779 0.5246,-1.1773 1.0047,-0.7786l1.6078 1.3425 0.3702 6.9625z"/>
  <path class="fil13" d="M123.34 102.329l0 0.0419 0 -31.5962c4.7994,0 11.8728,5.0597 11.8728,9.3457l-1.6918 11.8151c-0.6985,4.8655 -4.9409,8.9238 -10.181,10.3935z"/>
  <path class="fil13" d="M132.572 93.1739l0.015 0c1.016,0 1.8872,-0.8502 2.0755,-2.0232l0.89 -5.5032c0.1216,-0.6779 -0.5236,-1.1773 -1.002,-0.7786l-1.6099 1.3425 -0.3686 6.9625z"/>
  <path class="fil14" d="M130.104 76.9848c0,0 0.9304,-0.6531 1.5283,2.9102 0.5977,3.5627 0.9964,7.3649 0.9964,7.3649 0,0 2.062,-0.1652 2.7261,-5.1614 0.6662,-4.9942 -1.5277,-8.4396 -2.6233,-9.5675 -1.0992,-1.1294 -4.4705,-2.6136 -9.3909,-2.7335 -4.9188,-0.1178 -7.3332,1.4868 -9.9242,3.9222 -2.5931,2.4333 -2.337,4.7724 -2.0614,7.1261 0.2711,2.3537 2.0065,7.1869 2.0065,7.1869 -0.0004,0 0.6512,-4.2182 2.513,-6.771 1.8618,-2.556 3.1248,-3.9201 3.1248,-3.9201 0,-0.0005 -3.5064,3.3336 -4.9016,4.8176 -1.3975,1.4863 16.0063,-5.1744 16.0063,-5.1744z"/>
  <path class="fil0" d="M117.924 171.036c-5.5872,0.4805 -4.9355,1.145 -5.5866,0.4805 -1.4884,-1.5093 4.448,-0.3928 7.8913,-7.2154 0.7173,-1.4221 -0.9584,-1.4335 -2.1567,-0.2679 -1.1941,1.1558 -2.35,3.0241 -3.1873,1.6783 0,0 1.475,-5.0797 6.0596,-5.6817 3.8497,-0.5086 3.2157,-0.0287 3.4396,-0.5446l3.0316 4.4699c0,0 -3.9066,6.595 -9.4915,7.0809z"/>
  <path class="fil15" d="M108.082 157.103l-1.646 -29.3114c0,-4.7213 -7.9956,-21.8834 3.3433,-20.4882l5.8883 -0.0005c2.9171,2.9197 4.7553,4.5545 7.6728,7.4743l-0.0006 42.3258c-7.7831,0 -7.5985,0 -15.2578,0z"/>
  <path class="fil15" d="M82.8702 148.119l-2.5906 -6.2139 15.4361 -6.5945c0,0 5.1902,-18 5.6912,-20.1989 0.7178,-3.143 2.9309,-5.7242 5.9158,-6.9514l0.0413 -0.0169 2.8208 16.5692 -7.9354 15.3571c-2.3161,7.807 -19.3792,8.0493 -19.3792,8.0493z"/>
  <path class="fil16" d="M126.907 118.66c0,0 3.7058,-2.162 7.1627,-7.4542 1.032,-1.5815 1.7234,-2.853 2.2228,-3.9029l0.2103 -0.0005c11.3389,-1.3953 3.3417,15.7674 3.3417,20.4887l-1.5992 29.3114c-5.7759,0 -10.7018,0.3116 -14.9049,0l-0.0006 -42.3259 3.5672 3.8834z"/>
  <path class="fil17" d="M130.613 107.302l2.2229 0 3.4573 0c-0.4994,1.0504 -1.1902,2.3219 -2.2228,3.9034 -3.4574,5.2922 -7.1622,7.4542 -7.1622,7.4542l-3.5677 -3.8833c2.9182,-2.9198 4.3555,-4.5546 7.2725,-7.4743z"/>
  <path class="fil16" d="M116.07 107.302l-2.225 0 -3.4546 0c0.5014,1.0504 1.1924,2.3219 2.2233,3.9034 3.4563,5.2922 7.16,7.4542 7.16,7.4542l3.5665 -3.8833c-2.9176,-2.9198 -4.3521,-4.5546 -7.2702,-7.4743z"/>
  <polygon class="fil10" points="126.907,118.66 124.197,121.631 126.907,134.976 123.333,140.166 123.333,114.168 "/>
  <polygon class="fil11" points="119.761,118.66 122.471,121.631 119.761,134.976 123.333,140.166 123.333,114.168 "/>
  <path class="fil18" d="M124.385 159.485l3.0316 4.4705c0,0 23.2126,-6.7214 22.7702,-15.6721 -0.7371,-14.8349 -1.9645,-31.6613 -3.2899,-34.8527 -1.2397,-2.9763 -3.8608,-5.1459 -7.0066,-5.8504l-0.0458 -0.0096 0 20.2207 2.0196 17.7089 -17.4791 13.9847z"/>
  <polygon class="fil19" points="109.196,125.916 117.845,125.916 117.845,120.35 109.196,120.35 "/>
  <g id="_136982520">
   <polygon id="_136983288" class="fil20" points="107.258,174.96 59.6565,174.96 59.6565,160.555 107.258,160.555 "/>
   <path id="_136982568" class="fil21" d="M94.9672 142.73l-23.0195 0c-1.9313,0 -3.6541,1.2119 -4.3071,3.0289l-4.7177 13.1341c-0.291,0.8095 0.3088,1.6623 1.1686,1.6623l38.7321 0c0.8604,0 1.4596,-0.8528 1.1685,-1.6623l-4.7179 -13.1341c-0.6531,-1.817 -2.3759,-3.0289 -4.307,-3.0289z"/>
   <polygon id="_136982424" class="fil14" points="94.1307,137.556 72.7851,137.556 72.7851,142.73 94.1307,142.73 "/>
   <polygon id="_136982784" class="fil14" points="90.8668,139.143 88.2855,139.166 88.2855,125.477 90.74,125.453 "/>
   <polygon id="_136982400" class="fil21" points="78.8685,120.639 94.1307,120.639 94.1307,127.683 78.8685,127.683 "/>
  </g>
  <polygon class="fil22" points="209.116,185.798 0.0915,185.798 0.0915,175.037 209.116,175.037 "/>
  <g id="_136981584">
   <path id="_136982832" class="fil23" d="M16.6237 149.89l-0.9606 0 0 -7.2511c0,-2.1526 1.7515,-3.9036 3.9035,-3.9036 2.222,0 3.9723,1.751 3.9723,3.9038l0 6.7812 -0.9606 0 0 -6.7814c0,-1.6232 -1.3197,-2.9436 -2.9416,-2.9436 -1.6932,0 -3.013,1.3204 -3.013,2.9438l0 7.2509z"/>
   <path id="_136982856" class="fil24" d="M21.0031 149.89l-0.9605 0 0 -7.2511c0,-2.1526 1.7523,-3.9036 3.9042,-3.9036 2.2207,0 3.9722,1.751 3.9722,3.9038l0 6.7812 -0.9605 0 0 -6.7814c0,-1.6232 -1.3204,-2.9436 -2.9429,-2.9436 -1.6921,0 -3.0125,1.3204 -3.0125,2.9438l0 7.2509z"/>
   <polygon id="_136981680" class="fil25" points="15.8972,145.792 13.3031,145.792 10.3835,175.558 15.8972,173.764 "/>
   <polygon id="_136981872" class="fil26" points="15.8972,145.792 15.8972,173.764 21.411,175.558 18.4914,145.792 "/>
   <polygon id="_136981656" class="fil27" points="15.8972,173.764 10.3835,175.558 21.411,175.558 "/>
   <polygon id="_136981992" class="fil28" points="18.4914,145.792 21.411,175.558 34.3976,175.558 30.2565,145.792 "/>
  </g>
  <g id="_136979496">
   <polygon id="_136981488" class="fil29" points="173.914,174.454 164.01,174.358 165.073,170.266 172.932,170.342 "/>
   <path id="_136981968" class="fil30" d="M179.172 176.066l-19.6119 -0.1924 0.0024 -0.2367c0.0098,-0.9392 0.7793,-1.6938 1.7194,-1.6848l16.2066 0.159c0.9403,0.009 1.6948,0.7787 1.6856,1.7181l-0.0021 0.2368z"/>
   <polygon id="_136980864" class="fil21" points="190.194,171.395 147.033,170.972 147.301,143.674 190.463,144.097 "/>
   <polygon id="_136980744" class="fil31" points="148.078,168.705 148.314,144.707 189.43,145.109 189.195,169.108 "/>
   <polygon id="_136980696" class="fil32" points="148.768,144.712 148.314,144.707 "/>
   <path id="_136981344" class="fil33" d="M148.533 168.708l-0.4545 -0.0042 0.0964 -9.8623 -0.0084 0.8655 0.4578 -0.2511 -0.0913 9.2521m-0.3475 -10.8781l0.0189 -1.9766 0.4575 -0.2601 -0.0194 1.9818 -0.457 0.2549m0.0475 -4.8376l0.0805 -8.2857 0.4548 0.0045 -0.0787 8.0188 -0.4566 0.2624z"/>
   <polygon id="_136981224" class="fil29" points="190.646,171.821 190.191,171.816 190.463,144.097 190.913,144.514 "/>
   <path id="_136981008" class="fil32" d="M189.425 145.565l0 0 0.0043 -0.4545 -0.0043 0.4545m0.0043 -0.4545l-21.9599 -0.215 21.9599 0.215m-26.9794 -0.2639l-13.6817 -0.1342 13.6817 0.1342z"/>
   <path id="_136981056" class="fil33" d="M189.425 145.565l-15.2193 -0.1491 0.8136 -0.4465 -3.7029 -0.0361 -0.8016 0.4464 -3.8311 -0.0371 0.7857 -0.4471 21.9599 0.215 -0.0043 0.4545m-27.7552 -0.272l-12.9063 -0.1261 0.0047 -0.4545 13.6817 0.1342 -0.7801 0.4464z"/>
   <polygon id="_136980624" class="fil29" points="190.195,171.36 190.191,171.816 147.434,171.397 147.034,170.939 "/>
   <path id="_136980600" class="fil19" d="M188.02 170.305c-0.003,0.3662 -0.3031,0.6602 -0.6687,0.6567 -0.3671,-0.0033 -0.6606,-0.3031 -0.6566,-0.6696 0.0029,-0.3656 0.3029,-0.6603 0.6686,-0.6567 0.3673,0.0038 0.6602,0.3039 0.6567,0.6696z"/>
   <polygon id="_136980384" class="fil19" points="180.458,170.599 179.225,170.587 179.228,170.221 180.461,170.233 "/>
   <polygon id="_136980360" class="fil19" points="182.211,170.616 180.979,170.604 180.982,170.239 182.214,170.25 "/>
   <polygon id="_136980336" class="fil19" points="183.965,170.633 182.731,170.621 182.735,170.256 183.967,170.268 "/>
   <polygon id="_136980456" class="fil19" points="185.718,170.651 184.485,170.638 184.489,170.273 185.721,170.285 "/>
   <path id="_136980120" class="fil34" d="M148.205 155.854l0.0277 -2.861 -0.0277 2.861m19.2651 -10.9592l-5.0195 -0.0489 0.264 -0.1515 5.0207 0.0489 -0.2652 0.1515z"/>
   <polygon id="_136980312" class="fil35" points="148.662,155.593 148.69,152.731 161.67,145.292 166.684,145.342 "/>
   <polygon id="_136979448" class="fil36" points="148.205,155.854 148.233,152.993 148.69,152.731 148.662,155.593 "/>
   <polygon id="_136979880" class="fil34" points="167.47,144.894 162.45,144.845 "/>
   <polygon id="_136979544" class="fil36" points="166.684,145.342 161.67,145.292 162.45,144.845 167.47,144.894 "/>
   <polygon id="_136979736" class="fil35" points="148.624,159.456 148.643,157.575 170.515,145.379 174.206,145.415 "/>
   <polygon id="_136979856" class="fil36" points="148.166,159.707 148.175,158.842 148.185,157.83 148.643,157.575 148.624,159.456 "/>
   <polygon id="_136979760" class="fil36" points="174.206,145.415 170.515,145.379 171.316,144.933 175.019,144.968 "/>
  </g>
  <g id="_140073088">
   <path id="_136978368" class="fil37" d="M152.483 62.5719c-10.8586,0 -19.661,-8.8022 -19.661,-19.6611 0,-10.8587 8.8022,-19.6614 19.6609,-19.6614 10.8588,0 19.6616,8.8028 19.6616,19.6614 0.0002,10.8587 -8.8028,19.6611 -19.6615,19.6611z"/>
   <polygon id="_136979040" class="fil38" points="153.193,40.236 157.597,33.3856 168.399,40.3292 163.994,47.1797 "/>
   <path id="_136978944" class="fil39" d="M162.652 45.4638l-7.3413 -4.7184c0.4291,-0.6669 0.26,-1.539 -0.3773,-1.9485l2.0759 -3.2308c0.6374,0.4102 1.5013,0.2019 1.9295,-0.4644l7.3408 4.7182c-0.4275,0.6671 -0.2586,1.5392 0.3783,1.9487l-2.0763 3.2307c-0.6373,-0.4102 -1.5006,-0.202 -1.9296,0.4645z"/>
   <path id="_136978800" class="fil38" d="M161.261 40.293c-0.0692,-0.0947 -0.1327,-0.1771 -0.1973,-0.2605 -0.253,-0.3282 -0.2969,-0.3991 -0.2812,-0.5587 0.005,-0.0487 0.0709,-0.1495 0.185,-0.1791 0.0657,-0.017 0.1317,-0.0038 0.2014,0.0417 0.0486,0.0312 0.0988,0.0777 0.1491,0.1385 0.1142,0.1405 0.1596,0.2166 0.167,0.2294l0.0005 0.001c0.0317,0.0608 0.0787,0.1116 0.1364,0.1491 0.1137,0.0729 0.2515,0.084 0.3692,0.0301 0.0874,-0.0397 0.1525,-0.11 0.1846,-0.1987 0.0339,-0.0941 0.027,-0.1967 -0.0201,-0.2897 -0.0169,-0.0323 -0.084,-0.1543 -0.2579,-0.3661l-0.054 -0.0629 -0.0077 -0.0097 0.1923 -0.2991c0.0855,-0.1332 0.0406,-0.3154 -0.0999,-0.4059 -0.1405,-0.0898 -0.3245,-0.0554 -0.4102,0.0782l-0.1801 0.2802 -0.0127 -0.0042c-0.1917,-0.0687 -0.3874,-0.0777 -0.582,-0.027 -0.3826,0.0989 -0.6759,0.4234 -0.7124,0.788 -0.0464,0.4661 0.1675,0.7426 0.4383,1.0924l0.0015 0.0022c0.0555,0.0713 0.1183,0.1521 0.186,0.2441 0.0851,0.1163 0.2018,0.3477 0.1713,0.5089 -0.0132,0.074 -0.0593,0.1311 -0.1491,0.1845 -0.1052,0.0623 -0.231,0.0771 -0.3552,0.0428 -0.0496,-0.0138 -0.0972,-0.0354 -0.1416,-0.0634 -0.0729,-0.0476 -0.1363,-0.1148 -0.1813,-0.194 -0.1716,-0.3008 -0.2479,-0.5248 -0.2504,-0.5338 -0.0281,-0.0856 -0.0857,-0.1601 -0.1628,-0.2092 -0.0946,-0.0609 -0.2087,-0.0793 -0.3135,-0.0503 -0.0951,0.0254 -0.1723,0.0856 -0.2187,0.1702 -0.046,0.0856 -0.055,0.1861 -0.0238,0.2823 0.0038,0.0116 0.0978,0.2986 0.3138,0.6774l0.0541 0.0866 0.0063 0.009 -0.239 0.3715c-0.0859,0.1332 -0.0417,0.3157 0.0994,0.406 0.1401,0.0904 0.3241,0.055 0.4102,-0.0787l0.1835 -0.2843 0.0125 0.0074c0.0883,0.048 0.1807,0.0866 0.2758,0.113 0.3283,0.0915 0.6628,0.0507 0.9434,-0.1157 0.2634,-0.1564 0.4287,-0.3831 0.4794,-0.6569 0.0943,-0.5064 -0.2415,-0.9942 -0.3101,-1.0866z"/>
   <polygon id="_136978488" class="fil38" points="143.293,37.5351 147.697,30.6854 158.499,37.6291 154.096,44.4796 "/>
   <path id="_136978872" class="fil39" d="M152.752 42.7637l-7.3407 -4.7184c0.4285,-0.667 0.259,-1.5389 -0.3785,-1.9484l2.0771 -3.2303c0.6368,0.4096 1.5008,0.2014 1.9289,-0.4651l7.3413 4.719c-0.4284,0.6663 -0.259,1.5384 0.3778,1.948l-2.0764 3.2306c-0.6374,-0.41 -1.5009,-0.2018 -1.9295,0.4646z"/>
   <path id="_136978536" class="fil38" d="M151.361 37.5929c-0.0692,-0.0945 -0.1331,-0.1775 -0.1978,-0.2605 -0.2536,-0.3277 -0.2975,-0.3989 -0.281,-0.5585 0.0042,-0.0487 0.0702,-0.1496 0.1848,-0.1792 0.0657,-0.0169 0.1317,-0.0037 0.2021,0.0417 0.0486,0.0312 0.0982,0.0778 0.1479,0.139 0.1147,0.1395 0.1602,0.2162 0.1675,0.2293l0.0006 0.0006c0.0318,0.0607 0.0787,0.1115 0.1363,0.1491 0.1136,0.0728 0.252,0.0841 0.3699,0.0302 0.0868,-0.0398 0.1522,-0.11 0.1834,-0.1989 0.0349,-0.094 0.027,-0.1965 -0.0201,-0.2896 -0.0163,-0.0322 -0.0834,-0.1542 -0.2568,-0.3656l-0.0543 -0.0634 -0.008 -0.009 0.1923 -0.2998c0.0856,-0.1331 0.0412,-0.3154 -0.0994,-0.4053 -0.1404,-0.0903 -0.3249,-0.0555 -0.4111,0.0777l-0.1797 0.2802 -0.0121 -0.0049c-0.1918,-0.0681 -0.3875,-0.0771 -0.583,-0.0263 -0.382,0.0987 -0.6753,0.4232 -0.7119,0.788 -0.0464,0.4656 0.1675,0.7424 0.4387,1.0922l0.0012 0.0021c0.0549,0.0715 0.1177,0.1524 0.1852,0.2442 0.0853,0.1159 0.2021,0.3479 0.1719,0.5091 -0.0136,0.0739 -0.0592,0.1311 -0.1495,0.1844 -0.1047,0.0624 -0.2304,0.0771 -0.3541,0.0429 -0.0502,-0.0138 -0.0978,-0.0355 -0.1412,-0.0636 -0.0744,-0.0475 -0.1373,-0.1146 -0.1829,-0.1938 -0.1711,-0.3008 -0.2473,-0.5249 -0.2505,-0.5338 -0.0274,-0.0856 -0.0851,-0.1601 -0.1622,-0.2093 -0.0945,-0.0608 -0.2093,-0.0794 -0.3139,-0.0508 -0.0945,0.0258 -0.1718,0.0867 -0.2178,0.1707 -0.0469,0.0861 -0.0554,0.186 -0.0247,0.2822 0.0042,0.0117 0.0987,0.2985 0.3145,0.6776l0.0539 0.0866 0.0058 0.009 -0.2385 0.3715c-0.0859,0.1332 -0.0412,0.3155 0.0989,0.4054 0.1411,0.0904 0.3255,0.056 0.4111,-0.0776l0.1831 -0.2845 0.013 0.0075c0.0879,0.0481 0.1808,0.0861 0.2753,0.112 0.3284,0.0919 0.6633,0.0508 0.944,-0.1152 0.2626,-0.1565 0.428,-0.3831 0.4788,-0.6569 0.094,-0.5063 -0.2415,-0.9945 -0.3097,-1.0867z"/>
   <polygon id="_136977696" class="fil38" points="135.461,36.0742 139.865,29.2237 150.667,36.1681 146.263,43.0186 "/>
   <path id="_136978320" class="fil39" d="M144.92 41.3019l-7.3402 -4.7189c0.428,-0.6664 0.2589,-1.5385 -0.3784,-1.948l2.0769 -3.2306c0.6369,0.4095 1.5003,0.2013 1.9285,-0.4652l7.3419 4.719c-0.4287,0.6663 -0.2597,1.5384 0.3772,1.9479l-2.0759 3.2307c-0.6373,-0.4096 -1.501,-0.2012 -1.93,0.4651z"/>
   <path id="_136978272" class="fil38" d="M143.53 36.1311c-0.0692,-0.0941 -0.1333,-0.177 -0.1983,-0.2605 -0.253,-0.3278 -0.2969,-0.3991 -0.2812,-0.5586 0.0049,-0.0481 0.0708,-0.1497 0.185,-0.1792 0.0662,-0.0169 0.1317,-0.0037 0.2024,0.0418 0.0476,0.0311 0.0978,0.0782 0.148,0.1395 0.1147,0.1395 0.1602,0.2156 0.167,0.2283l0.0006 0.0017c0.0322,0.06 0.0793,0.1119 0.1368,0.1484 0.1137,0.0728 0.2515,0.0841 0.3695,0.0301 0.0867,-0.0391 0.1521,-0.1099 0.1839,-0.1982 0.0339,-0.0941 0.027,-0.1971 -0.0201,-0.2896 -0.0163,-0.0328 -0.0836,-0.1548 -0.2573,-0.3662l-0.0539 -0.0636 -0.0084 -0.009 0.1929 -0.2996c0.0849,-0.1331 0.0406,-0.3155 -0.1001,-0.4058 -0.1399,-0.0899 -0.3244,-0.0549 -0.41,0.0782l-0.1802 0.2806 -0.0122 -0.0042c-0.1923,-0.0688 -0.388,-0.0782 -0.5831,-0.0274 -0.3826,0.0993 -0.6748,0.4233 -0.7123,0.788 -0.0464,0.466 0.1682,0.7431 0.4383,1.0929l0.0014 0.0016c0.0556,0.0713 0.1184,0.1522 0.1861,0.2442 0.0851,0.116 0.2018,0.3477 0.1712,0.5089 -0.0132,0.0744 -0.0592,0.1311 -0.149,0.1844 -0.1046,0.0623 -0.231,0.0771 -0.3546,0.0429 -0.0502,-0.0138 -0.0978,-0.035 -0.1412,-0.0636 -0.074,-0.0475 -0.1369,-0.1146 -0.1823,-0.1938 -0.1712,-0.3008 -0.2479,-0.5248 -0.2504,-0.5333 -0.0281,-0.0862 -0.0857,-0.1606 -0.1623,-0.2098 -0.0945,-0.0608 -0.2092,-0.0788 -0.314,-0.0502 -0.0946,0.0258 -0.1717,0.0861 -0.2176,0.1701 -0.0471,0.0862 -0.0561,0.1861 -0.0249,0.2822 0.0043,0.0121 0.0983,0.2987 0.3138,0.6776l0.0546 0.0866 0.0058 0.009 -0.2384 0.3715c-0.0861,0.1332 -0.0418,0.3156 0.0988,0.406 0.1406,0.0903 0.3251,0.0554 0.4106,-0.0782l0.1831 -0.2843 0.0132 0.0067c0.0882,0.0491 0.1806,0.0867 0.2757,0.1132 0.3277,0.0918 0.6632,0.0506 0.9434,-0.1158 0.2626,-0.1564 0.4286,-0.3832 0.4788,-0.6563 0.0942,-0.5069 -0.2415,-0.9941 -0.3091,-1.0872z"/>
   <path id="_136977984" class="fil40" d="M162.014 46.5959c0.2093,0.5813 -0.0967,1.2277 -0.678,1.4353l-9.0308 3.2361c-0.5826,0.2082 -1.2278,-0.0973 -1.4361,-0.6787l-1.8078 -5.046c-0.2083,-0.5814 0.097,-1.2277 0.6784,-1.4349l9.0305 -3.2371c0.5817,-0.2076 1.2282,0.0985 1.4358,0.6797l1.808 5.0456z"/>
   <polygon id="_136978176" class="fil19" points="154.776,43.9435 159.607,42.2122 "/>
   <polygon id="_136977864" class="fil41" points="154.83,44.0976 154.72,43.7895 159.552,42.0582 159.662,42.3663 "/>
   <polygon id="_136977816" class="fil19" points="155.177,45.0633 160.007,43.3313 "/>
   <polygon id="_136978344" class="fil41" points="155.232,45.2174 155.122,44.9085 159.952,43.1765 160.064,43.4853 "/>
   <path id="_136976832" class="fil42" d="M162.014 46.5959c0.2093,0.5813 -0.0967,1.2277 -0.678,1.4353l-9.0308 3.2361c-0.5826,0.2082 -1.2278,-0.0973 -1.4361,-0.6787l-1.8078 -5.046c-0.2083,-0.5814 0.097,-1.2277 0.6784,-1.4349l9.0305 -3.2371c0.5817,-0.2076 1.2282,0.0985 1.4358,0.6797l1.808 5.0456z"/>
   <polygon id="_136977360" class="fil19" points="154.776,43.9435 159.607,42.2122 "/>
   <polygon id="_136977312" class="fil43" points="154.83,44.0976 154.72,43.7895 159.552,42.0582 159.662,42.3663 "/>
   <polygon id="_136977168" class="fil19" points="155.177,45.0633 160.007,43.3313 "/>
   <polygon id="_136977552" class="fil43" points="155.232,45.2174 155.122,44.9085 159.952,43.1765 160.064,43.4853 "/>
   <path id="_136976904" class="fil40" d="M163.512 50.6215c0,0.6184 -0.5054,1.1231 -1.1226,1.1231l-9.5926 0c-0.6184,0 -1.1237,-0.5047 -1.1237,-1.1231l0.0001 -5.3594c0,-0.6178 0.5052,-1.1231 1.1235,-1.1231l9.5928 0c0.6172,0 1.1224,0.5053 1.1224,1.1231l0.0001 5.3594z"/>
   <polygon id="_136977528" class="fil44" points="162.724,49.219 157.592,49.219 157.592,50.556 162.724,50.556 "/>
   <polygon id="_136976808" class="fil19" points="157.592,45.6833 162.724,45.6833 "/>
   <path id="_136976640" class="fil44" d="M162.724 45.8473l-5.1321 0c-0.0908,0 -0.1639,-0.0734 -0.1639,-0.1642 0,-0.0904 0.073,-0.1638 0.1639,-0.1638l5.1321 0c0.0905,0 0.1639,0.0734 0.1639,0.1638 0,0.0908 -0.0735,0.1644 -0.1639,0.1642z"/>
   <polygon id="_136976544" class="fil19" points="157.592,46.8724 162.724,46.8724 "/>
   <path id="_136976352" class="fil45" d="M162.724 47.0364l-5.1321 0c-0.0908,0 -0.1639,-0.0739 -0.1639,-0.1642 0,-0.0905 0.073,-0.1639 0.1639,-0.1639l5.1321 0c0.0905,0 0.1639,0.0735 0.1639,0.1639 0,0.0903 -0.0735,0.1642 -0.1639,0.1642z"/>
   <polygon id="_136976256" class="fil19" points="152.426,47.9414 162.724,47.9414 "/>
   <path id="_136976592" class="fil43" d="M162.724 48.1054l-10.2988 0c-0.0897,0 -0.1637,-0.0735 -0.1637,-0.1638 0,-0.0899 0.074,-0.1633 0.1637,-0.1633l10.2988 -0.0001c0.0905,0 0.1639,0.0735 0.1639,0.1634 0,0.0903 -0.0735,0.1638 -0.1639,0.1638z"/>
   <path id="_136976712" class="fil46" d="M151.416 41.1671l0 0 0 -0.0004 -0.0007 -2.9247c0,-0.4667 -0.3783,-0.8483 -0.8423,-0.8483l-1.2478 -0.0001 -6.7303 0 -3.358 0c-0.4641,0 -1.1464,0.3817 -1.1464,0.8484l0 2.0775 0 0.8476 12.5897 0 0.7358 0.3429 0 -0.3429z"/>
   <path id="_140066872" class="fil44" d="M138.095 39.4705c0,0.4663 0.678,0.8484 1.142,0.8484l11.3363 0c0.4639,0 0.8429,0.3815 0.8429,0.8476l0 9.7295c0,0.4667 -0.379,0.8484 -0.843,0.8484l-11.3361 0c-0.4641,0 -1.1464,-0.3817 -1.1464,-0.8484l0.0043 -11.4255z"/>
   <path id="_140066800" class="fil47" d="M151.112 39.5468l-12.4143 0c-0.0956,0 -0.1728,-0.0771 -0.1728,-0.1727 0.0001,-0.0952 0.0771,-0.1729 0.1728,-0.1729l12.4143 0c0.0951,0 0.1722,0.0777 0.1722,0.1729 0,0.0956 -0.0771,0.1727 -0.1722,0.1727z"/>
   <path id="_140066536" class="fil47" d="M138.433 40.5841c-0.0745,0 -0.1428,-0.0485 -0.1655,-0.1242 -0.0274,-0.094 -0.0423,-0.1927 -0.0423,-0.2927 0.0002,-0.0951 0.0776,-0.1723 0.1728,-0.1723 0.0958,0 0.1735,0.0772 0.1735,0.1723 0,0.0667 0.0084,0.1321 0.0274,0.1951 0.0275,0.0914 -0.0249,0.1871 -0.1163,0.2145l-0.0496 0.0073z"/>
   <path id="_140066776" class="fil47" d="M138.43 50.6161c-0.0745,0 -0.1433,-0.0485 -0.1655,-0.1236 -0.0285,-0.0947 -0.0428,-0.1934 -0.0428,-0.2927 0.0001,-0.0952 0.0771,-0.1723 0.1728,-0.1723 0.0947,0 0.1723,0.0771 0.1723,0.1723 0,0.0654 0.009,0.131 0.0285,0.1944 0.0271,0.091 -0.0243,0.1872 -0.1157,0.2146l-0.0496 0.0073z"/>
   <path id="_140066200" class="fil47" d="M151.112 38.5563l-12.4143 0c-0.0956,0 -0.1728,-0.0771 -0.1728,-0.1727 0.0001,-0.0951 0.0771,-0.1729 0.1728,-0.1729l12.4143 0c0.0951,0 0.1722,0.0778 0.1722,0.1729 0,0.0956 -0.0771,0.1727 -0.1722,0.1727z"/>
   <path id="_140093104" class="fil47" d="M139.407 41.1887l-0.1706 0c-0.1343,0 -0.2649,-0.0263 -0.3869,-0.0776 -0.0878,-0.037 -0.1297,-0.138 -0.0926,-0.2256 0.0371,-0.0884 0.139,-0.1296 0.2262,-0.093 0.08,0.0337 0.1653,0.0507 0.2531,0.0507l0.1708 0c0.0947,0 0.1723,0.0772 0.1723,0.1723 0,0.096 -0.0778,0.1734 -0.1723,0.1732zm1.2473 0l-0.4996 0c-0.095,0 -0.1723,-0.077 -0.1723,-0.1732 0,-0.0953 0.0772,-0.1723 0.1723,-0.1723l0.4996 0c0.0956,0 0.1721,0.0772 0.1721,0.1723 0.0002,0.096 -0.0765,0.1734 -0.1721,0.1732zm1.2466 0l-0.4983 0c-0.0955,0 -0.1724,-0.077 -0.1724,-0.1732 0.0002,-0.0953 0.0767,-0.1723 0.1723,-0.1723l0.4984 0c0.0957,0 0.1733,0.0772 0.1733,0.1723 0,0.096 -0.0776,0.1734 -0.1733,0.1732zm1.2479 0l-0.4994 0c-0.0952,0 -0.1725,-0.077 -0.1725,-0.1732 0.0002,-0.0953 0.0771,-0.1723 0.1723,-0.1723l0.4996 0c0.0951,0 0.1727,0.0772 0.1727,0.1723 0,0.096 -0.0777,0.1734 -0.1727,0.1732zm1.2472 0l-0.4983 0c-0.0962,0 -0.1735,-0.077 -0.1735,-0.1732 0.0001,-0.0953 0.0771,-0.1723 0.1733,-0.1723l0.4985 0c0.0956,0 0.1727,0.0772 0.1727,0.1723 0,0.096 -0.0771,0.1734 -0.1727,0.1732zm1.2472 0l-0.4988 0c-0.0957,0 -0.173,-0.077 -0.173,-0.1732 0.0001,-0.0953 0.0773,-0.1723 0.1729,-0.1723l0.4989 0c0.0952,0 0.1728,0.0772 0.1728,0.1723 0.0001,0.096 -0.0777,0.1734 -0.1728,0.1732zm1.2478 0l-0.4994 0c-0.0952,0 -0.1729,-0.077 -0.1729,-0.1732 0.0001,-0.0953 0.0777,-0.1723 0.1729,-0.1723l0.4994 0c0.0951,0 0.1722,0.0772 0.1722,0.1723 0.0001,0.096 -0.0772,0.1734 -0.1722,0.1732zm1.2474 0l-0.4991 0c-0.0956,0 -0.1723,-0.077 -0.1723,-0.1732 0,-0.0953 0.0766,-0.1723 0.1723,-0.1723l0.4991 0c0.0951,0 0.1721,0.0772 0.1721,0.1723 0.0001,0.096 -0.0772,0.1734 -0.1721,0.1732zm1.2471 0l-0.4995 0c-0.0946,0 -0.1723,-0.077 -0.1723,-0.1732 0,-0.0953 0.0777,-0.1723 0.1723,-0.1723l0.4995 0c0.0952,0 0.1727,0.0772 0.1727,0.1723 0,0.096 -0.0777,0.1734 -0.1727,0.1732zm1.1495 0.3167c-0.0498,0 -0.1,-0.0217 -0.1349,-0.0645 -0.084,-0.1052 -0.1954,-0.1813 -0.323,-0.2215 -0.0907,-0.0291 -0.1404,-0.1256 -0.1124,-0.2172 0.0296,-0.0904 0.1258,-0.1411 0.2166,-0.1125 0.1925,0.0607 0.361,0.1771 0.4884,0.3351 0.0597,0.0744 0.048,0.1834 -0.027,0.243l-0.1077 0.0376zm0.1875 1.2043c-0.0956,0 -0.1728,-0.077 -0.1728,-0.1727l0.0002 -0.4984c0,-0.0962 0.0769,-0.1728 0.1726,-0.1728 0.0952,0 0.1728,0.0766 0.1728,0.1728l0.0001 0.4984c0,0.0956 -0.0777,0.1728 -0.1729,0.1727zm0 1.2473c-0.0956,0 -0.1728,-0.0775 -0.1728,-0.1727l0.0002 -0.499c0,-0.0951 0.0769,-0.1728 0.1726,-0.1728 0.0952,0 0.1728,0.0777 0.1728,0.1728l0.0001 0.4988c0,0.0952 -0.0777,0.1729 -0.1729,0.1729zm0 1.2472c-0.0956,0 -0.1728,-0.077 -0.1728,-0.1721l0.0002 -0.4995c0,-0.0952 0.0769,-0.1729 0.1726,-0.1729 0.0952,0 0.1728,0.0777 0.1728,0.1729l0.0001 0.4993c0,0.0951 -0.0777,0.1724 -0.1729,0.1723zm0 1.2479c-0.0956,0 -0.1728,-0.0777 -0.1728,-0.1729l0.0002 -0.4993c0,-0.0953 0.0769,-0.1728 0.1726,-0.1728 0.0952,0 0.1728,0.0775 0.1728,0.1728l0.0001 0.4993c0,0.0952 -0.0777,0.1729 -0.1729,0.1729zm0 1.2467c-0.0956,0 -0.1728,-0.0771 -0.1728,-0.1723l0.0002 -0.4994c0,-0.0952 0.0769,-0.1723 0.1726,-0.1723 0.0952,0 0.1728,0.0771 0.1728,0.1723l0.0001 0.4994c0,0.0952 -0.0777,0.1723 -0.1729,0.1723zm0 1.2478c-0.0956,0 -0.1728,-0.0778 -0.1728,-0.1729l0.0002 -0.4989c0,-0.0951 0.0769,-0.1727 0.1726,-0.1727 0.0952,-0.0002 0.1728,0.0776 0.1728,0.1727l0.0001 0.4989c0,0.0951 -0.0777,0.1729 -0.1729,0.1729zm0 1.2473c-0.0956,0 -0.1728,-0.0773 -0.1728,-0.1729l0.0002 -0.4991c0,-0.0955 0.0769,-0.1726 0.1726,-0.1726 0.0952,0 0.1728,0.0771 0.1728,0.1728l0.0001 0.4989c0,0.0956 -0.0777,0.1729 -0.1729,0.1729zm-0.5881 0.9866c-0.073,0 -0.1413,-0.0466 -0.1645,-0.12 -0.0295,-0.0909 0.0207,-0.1882 0.1116,-0.2166 0.1263,-0.0407 0.2378,-0.1185 0.3212,-0.2241 0.0597,-0.074 0.1687,-0.0867 0.2427,-0.0276 0.0746,0.0592 0.0866,0.1677 0.0274,0.2427 -0.1257,0.1585 -0.2944,0.2758 -0.4862,0.3371l-0.0522 0.0085zm-10.7232 0.0402l-0.1748 0c-0.1323,0 -0.2603,-0.0254 -0.3813,-0.0751 -0.0881,-0.0365 -0.1299,-0.1369 -0.0945,-0.2256 0.0366,-0.0883 0.1369,-0.13 0.2256,-0.0941 0.0794,0.0326 0.1633,0.0491 0.25,0.0491l0.175 0c0.0951,0 0.1727,0.0777 0.1727,0.1728 0.0002,0.0957 -0.0776,0.1729 -0.1727,0.1729zm1.2479 0l-0.4996 0c-0.095,0 -0.1728,-0.0772 -0.1728,-0.1729 0.0001,-0.0951 0.0777,-0.1728 0.1728,-0.1728l0.4996 0c0.095,0 0.1726,0.0777 0.1726,0.1728 0.0001,0.0957 -0.0776,0.1729 -0.1726,0.1729zm1.2471 0l-0.4989 0c-0.0956,0 -0.1728,-0.0772 -0.1728,-0.1729 0,-0.0951 0.0772,-0.1728 0.1728,-0.1728l0.4989 0c0.0956,0 0.1728,0.0777 0.1728,0.1728 0,0.0957 -0.0772,0.1729 -0.1728,0.1729zm1.2474 0l-0.499 0c-0.0951,0 -0.1729,-0.0772 -0.1729,-0.1729 0.0002,-0.0951 0.0778,-0.1728 0.1729,-0.1728l0.499 0c0.0951,0 0.1721,0.0777 0.1721,0.1728 0.0002,0.0957 -0.0772,0.1729 -0.1721,0.1729zm1.2476 0l-0.4989 0c-0.0962,0 -0.1733,-0.0772 -0.1733,-0.1729 0,-0.0951 0.0771,-0.1728 0.1733,-0.1728l0.4989 0c0.0951,0 0.1723,0.0777 0.1723,0.1728 0,0.0957 -0.0772,0.1729 -0.1723,0.1729zm1.2469 0l-0.4989 0c-0.0953,0 -0.1725,-0.0772 -0.1725,-0.1729 0,-0.0951 0.0772,-0.1728 0.1723,-0.1728l0.4991 0c0.0951,0 0.1721,0.0777 0.1721,0.1728 0,0.0957 -0.0772,0.1729 -0.1721,0.1729zm1.2477 0l-0.4994 0c-0.0951,0 -0.1725,-0.0772 -0.1725,-0.1729 0.0002,-0.0951 0.0772,-0.1728 0.1723,-0.1728l0.4996 0c0.0951,0 0.1727,0.0777 0.1727,0.1728 0,0.0957 -0.0777,0.1729 -0.1727,0.1729zm1.2466 0l-0.4983 0c-0.0956,0 -0.1728,-0.0772 -0.1728,-0.1729 0.0001,-0.0951 0.0771,-0.1728 0.1727,-0.1728l0.4984 0c0.0957,0 0.1729,0.0777 0.1729,0.1728 0,0.0957 -0.0772,0.1729 -0.1729,0.1729zm1.2473 0l-0.4989 0c-0.0957,0 -0.1728,-0.0772 -0.1728,-0.1729 0,-0.0951 0.0771,-0.1728 0.1726,-0.1728l0.4991 0c0.0962,0 0.1733,0.0777 0.1733,0.1728 0,0.0957 -0.0771,0.1729 -0.1733,0.1729z"/>
   <path id="_140093680" class="fil0" d="M145.408 46.1254c0,0.5835 0.4751,1.0601 1.0538,1.0601l5.3046 0c0.5796,0 0.5796,-2.8611 -0.0001,-2.8611l-5.3045 0c-0.5787,0 -1.0539,0.4766 -1.0539,1.0595l0.0001 0.7415z"/>
   <path id="_140092360" class="fil0" d="M145.408 46.1254c0,0.5835 0.4751,1.0601 1.0538,1.0601l5.3046 0c0.5796,0 0.5796,-2.8611 -0.0001,-2.8611l-5.3045 0c-0.5787,0 -1.0539,0.4766 -1.0539,1.0595l0.0001 0.7415z"/>
   <path id="_140073544" class="fil47" d="M147.411 45.7549c0,0.38 -0.306,0.6887 -0.6839,0.6887 -0.3783,0 -0.6859,-0.3087 -0.6859,-0.6886 0,-0.3806 0.3076,-0.6892 0.6859,-0.6892 0.3779,0 0.6839,0.3087 0.6839,0.6891z"/>
  </g>
  <g id="_140070784">
   <path id="_140073472" class="fil48" d="M103.429 46.9383c-12.2954,0 -22.2624,-9.9668 -22.2624,-22.2623 0,-12.2956 9.9668,-22.2629 22.2622,-22.2629 12.2955,0 22.263,9.9675 22.263,22.2629 0.0002,12.2953 -9.9675,22.2623 -22.2628,22.2623z"/>
   <g>
    <path id="_140073376" class="fil9" d="M122.393 20.0178l-10.1034 -8.3145 -11.2856 13.7161 1.3531 -0.132c0.5471,-0.0533 1.0335,0.3466 1.0863,0.8938l0.1155 1.1856 1.1855 -0.1153c0.5466,-0.0527 1.0329,0.3473 1.0863,0.8945l0.1282 1.3193 1.2188 -0.1184c0.5472,-0.0534 1.033,0.3466 1.0862,0.8937l0.1763 1.2973 1.4563 -0.0823c0.5469,-0.0526 1.0223,0.3388 1.075,0.8853l0.1357 1.3918 11.2858 -13.7149z"/>
    <polygon id="_140073448" class="fil49" points="105.961,23.0805 104.648,22.0004 104.774,21.8487 106.085,22.9283 "/>
    <polygon id="_140073712" class="fil49" points="104.246,24.0227 104.054,23.8638 105.298,22.3524 105.491,22.5106 "/>
    <polygon id="_140073160" class="fil49" points="108.482,25.1562 107.171,24.0766 107.296,23.9245 108.609,25.0048 "/>
    <polygon id="_140073280" class="fil49" points="106.769,26.0984 106.576,25.9402 107.82,24.4282 108.013,24.5864 "/>
    <path id="_140073616" class="fil49" d="M106.57 23.5823c-0.2194,-0.1803 -0.5012,-0.1864 -0.6373,-0.0214l-0.536 0.6514c-0.1362,0.1649 -0.0762,0.4409 0.1342,0.6133l0.0099 0.0086c0.2092,0.1723 0.4912,0.1785 0.6275,0.0129l0.5353 -0.6514c0.1369,-0.165 0.0762,-0.4404 -0.1336,-0.6134zm-1.1549 1.4035l-0.0092 -0.008c-0.3166,-0.2608 -0.4067,-0.6748 -0.2018,-0.9238l0.5361 -0.6508c0.2049,-0.2497 0.6286,-0.2405 0.9451,0.0197 0.3258,0.2679 0.4159,0.6826 0.211,0.931l-0.536 0.6521c-0.2048,0.2485 -0.6287,0.2392 -0.9452,-0.0202z"/>
    <polygon id="_140073328" class="fil49" points="109.466,28.3176 108.67,27.6626 109.948,26.1082 110.142,26.2659 108.987,27.6699 109.591,28.1662 "/>
    <polygon id="_140073304" class="fil49" points="107.341,26.5702 107.15,26.4119 108.921,25.2624 109.109,25.4168 108.301,27.3596 108.092,27.1872 108.751,25.6531 "/>
    <polygon id="_140072680" class="fil49" points="108.457,26.5891 107.896,26.1266 108.021,25.9751 108.583,26.437 "/>
    <polygon id="_140072584" class="fil49" points="119.768,22.0469 110.805,14.6703 112.105,13.0901 121.068,20.4668 "/>
    <polygon id="_140072560" class="fil49" points="118.439,23.6619 109.475,16.2853 109.989,15.6609 118.953,23.0383 "/>
    <polygon id="_140072320" class="fil49" points="117.21,25.1556 108.247,17.7795 108.76,17.1552 117.724,24.5311 "/>
    <polygon id="_140072392" class="fil49" points="115.981,26.6493 107.017,19.2726 107.531,18.6487 116.495,26.0249 "/>
    <polygon id="_140072896" class="fil49" points="114.752,28.1428 105.788,20.7662 106.302,20.1418 115.266,27.5185 "/>
    <polygon id="_140072848" class="fil9" points="112.07,27.1264 110.98,26.2297 116.076,20.0368 117.166,20.9344 "/>
    <polygon id="_140072800" class="fil49" points="112.531,30.8405 110.434,29.1145 111.82,27.4319 113.917,29.1574 "/>
   </g>
   <g>
    <path id="_140072608" class="fil22" d="M99.4095 40.5316l7.4696 -4.3823c2.0395,-1.1963 2.8761,-3.5573 1.8699,-5.2736l-8.7546 -14.9217c-1.0073,-1.7163 -3.4762,-2.1369 -5.5156,-0.9416l-7.4697 4.3834c-2.0387,1.1963 -2.8761,3.5573 -1.8696,5.2736l8.7543 14.9206c1.0073,1.7164 3.4762,2.1379 5.5157,0.9416z"/>
    <path id="_140072704" class="fil22" d="M99.4095 40.5316l7.4696 -4.3823c2.0395,-1.1963 2.8761,-3.5573 1.8699,-5.2736l-8.7546 -14.9217c-1.0073,-1.7163 -3.4762,-2.1369 -5.5156,-0.9416l-7.4697 4.3834c-2.0387,1.1963 -2.8761,3.5573 -1.8696,5.2736l8.7543 14.9206c1.0073,1.7164 3.4762,2.1379 5.5157,0.9416z"/>
    <path id="_140072488" class="fil50" d="M98.3118 41.0126c0.2633,-0.0495 0.5286,-0.1468 0.7804,-0.2947l0.3032 -0.1785c-0.3519,0.2052 -0.7164,0.3627 -1.0836,0.4732m8.6181 -4.8929l0.2671 -0.1573c0.2518,-0.1468 0.4655,-0.331 0.6372,-0.5359 -0.2661,0.2573 -0.5684,0.4913 -0.9043,0.6932m-20.8776 -15.9979c0.2796,-0.2717 0.6003,-0.5167 0.957,-0.7257l7.4697 -4.3835c0.3566,-0.209 0.7268,-0.3683 1.0987,-0.4808 -0.2632,0.0495 -0.5293,0.1469 -0.7813,0.2948l-8.1048 4.7555c-0.2529,0.1476 -0.4673,0.3329 -0.6393,0.5397z"/>
    <path id="_140072128" class="fil51" d="M97.8998 41.0506c0.1354,0 0.2731,-0.0124 0.4113,-0.0384 0.3672,-0.1105 0.7317,-0.268 1.0838,-0.4729l7.5343 -4.42c0.3359,-0.2022 0.6382,-0.4359 0.9043,-0.6933 0.5094,-0.6106 0.6449,-1.4148 0.2766,-2.0425l-10.6165 -18.0965c-0.3034,-0.5171 -0.8777,-0.7938 -1.5065,-0.7938 -0.1351,-0.0002 -0.2717,0.0133 -0.4101,0.0382 -0.3722,0.1125 -0.7421,0.2718 -1.0987,0.4808l-7.4697 4.3834c-0.3569,0.2088 -0.6774,0.4541 -0.9568,0.726 -0.5075,0.6096 -0.643,1.4127 -0.2747,2.0395l10.6165 18.0956c0.3034,0.517 0.8767,0.7939 1.5062,0.7939z"/>
    <path id="_140071552" class="fil52" d="M92.9588 30.2689l7.7003 -4.5171c0.685,-0.4023 0.9654,-1.1952 0.6276,-1.7714l-5.3563 -9.1294c-0.3388,-0.5771 -1.1677,-0.7183 -1.8527,-0.3167l-7.7005 4.517c-0.685,0.4026 -0.9652,1.1955 -0.6276,1.7725l5.3566 9.1295c0.3375,0.576 1.1676,0.7182 1.8526,0.3156z"/>
    <path id="_140071576" class="fil52" d="M100.043 40.1595l5.8229 -3.4161c0.9959,-0.5847 1.4023,-1.7418 0.9075,-2.586l-3.9811 -6.7857c-0.4951,-0.8443 -1.7038,-1.0539 -2.6998,-0.47l-5.8228 3.4169c-0.9971,0.5839 -1.4024,1.742 -0.9084,2.5852l3.9812 6.7865c0.495,0.8432 1.7046,1.0541 2.7005,0.4692z"/>
    <polygon id="_140072032" class="fil53" points="91.9599,28.6339 99.7628,24.0566 96.6501,18.7527 88.848,23.3309 "/>
    <polygon id="_140072104" class="fil54" points="88.6974,21.2008 94.744,17.6538 91.316,11.8107 85.2699,15.3577 "/>
    <path id="_140072248" class="fil19" d="M100.745 29.9514l0.8262 -0.4849c0.0935,-0.0543 0.1251,-0.1744 0.0697,-0.2679l-0.4846 -0.8262c-0.0544,-0.0935 -0.1747,-0.1249 -0.268,-0.0706l-0.8263 0.4847c-0.0934,0.0554 -0.125,0.1757 -0.0696,0.269l0.4847 0.8261c0.0543,0.0936 0.1746,0.125 0.2679,0.0698z"/>
    <path id="_140072224" class="fil19" d="M98.8481 31.0647l0.8254 -0.4849c0.0935,-0.0543 0.1257,-0.1752 0.0705,-0.2688l-0.4848 -0.8264c-0.0544,-0.0932 -0.1753,-0.1238 -0.2688,-0.0695l-0.8261 0.4846c-0.0928,0.0555 -0.125,0.1755 -0.0698,0.2691l0.4846 0.825c0.0546,0.0947 0.1758,0.1253 0.269,0.0709z"/>
    <path id="_140071672" class="fil19" d="M96.9506 32.1777l0.8261 -0.4845c0.0936,-0.0552 0.1253,-0.1755 0.0698,-0.2688l-0.4846 -0.8265c-0.0543,-0.0933 -0.1746,-0.1246 -0.268,-0.0694l-0.8263 0.4835c-0.0933,0.0554 -0.1249,0.1765 -0.0695,0.2701l0.4845 0.825c0.0545,0.0936 0.1748,0.1252 0.268,0.0706z"/>
    <path id="_140072056" class="fil19" d="M101.918 31.949l0.8261 -0.4839c0.0937,-0.0551 0.125,-0.1755 0.0698,-0.2687l-0.4848 -0.8261c-0.0544,-0.0936 -0.1755,-0.1253 -0.2688,-0.0698l-0.8253 0.4846c-0.0936,0.0543 -0.1249,0.1747 -0.0706,0.268l0.4846 0.8261c0.0554,0.0935 0.1755,0.1251 0.269,0.0698z"/>
    <path id="_140071696" class="fil19" d="M100.021 33.0622l0.825 -0.4846c0.0936,-0.0545 0.1252,-0.1747 0.0706,-0.269l-0.4846 -0.8253c-0.0552,-0.0944 -0.1755,-0.1249 -0.2687,-0.0706l-0.8264 0.4849c-0.0936,0.0551 -0.125,0.1755 -0.0695,0.2688l0.4846 0.8261c0.0543,0.0935 0.1746,0.1252 0.269,0.0697z"/>
    <path id="_140071216" class="fil19" d="M98.1235 34.1755l0.8261 -0.4848c0.0936,-0.0552 0.1241,-0.1753 0.0698,-0.2688l-0.4849 -0.8253c-0.0552,-0.0944 -0.1755,-0.1258 -0.2687,-0.0706l-0.8264 0.4846c-0.0934,0.0546 -0.1239,0.1758 -0.0695,0.269l0.4846 0.8261c0.0553,0.0928 0.1755,0.125 0.269,0.0698z"/>
    <path id="_140071168" class="fil19" d="M103.09 33.9473l0.8261 -0.4846c0.0934,-0.0552 0.1239,-0.1755 0.0696,-0.2687l-0.4846 -0.8265c-0.0555,-0.0933 -0.1755,-0.1238 -0.2691,-0.0694l-0.825 0.4845c-0.0946,0.0554 -0.1249,0.1755 -0.0706,0.2691l0.4846 0.825c0.0552,0.0947 0.1755,0.1252 0.269,0.0706z"/>
    <path id="_140071024" class="fil19" d="M101.192 35.0606l0.8262 -0.4843c0.0936,-0.0555 0.1249,-0.1758 0.0706,-0.2691l-0.4857 -0.8263c-0.0544,-0.0934 -0.1744,-0.125 -0.2688,-0.0696l-0.8253 0.4835c-0.0936,0.0555 -0.1249,0.1767 -0.0695,0.2691l0.4835 0.8261c0.0555,0.0936 0.1755,0.1252 0.269,0.0706z"/>
    <path id="_140070856" class="fil19" d="M99.2947 36.173l0.8261 -0.4845c0.0936,-0.0544 0.1249,-0.1747 0.0706,-0.268l-0.4846 -0.8261c-0.0554,-0.0935 -0.1755,-0.1252 -0.269,-0.0698l-0.8262 0.4835c-0.0936,0.0555 -0.1249,0.1758 -0.0695,0.2691l0.4846 0.8261c0.0544,0.0936 0.1755,0.1252 0.268,0.0697z"/>
    <path id="_140071072" class="fil55" d="M104.229 35.8897l0.8261 -0.4846c0.0936,-0.0551 0.1249,-0.1755 0.0698,-0.2691l-0.4848 -0.825c-0.0544,-0.0944 -0.1745,-0.1249 -0.268,-0.0706l-0.8262 0.4846c-0.0935,0.0552 -0.1248,0.1755 -0.0695,0.269l0.4836 0.8259c0.0554,0.0936 0.1755,0.1242 0.269,0.0698z"/>
    <path id="_140070904" class="fil56" d="M102.332 37.0029l0.8261 -0.4853c0.0925,-0.0546 0.1239,-0.1747 0.0695,-0.2683l-0.4846 -0.8261c-0.0553,-0.0935 -0.1755,-0.1249 -0.269,-0.0694l-0.825 0.4845c-0.0947,0.0544 -0.126,0.1744 -0.0706,0.268l0.4846 0.8261c0.0543,0.0936 0.1755,0.1249 0.269,0.0705z"/>
    <path id="_140070832" class="fil57" d="M100.435 38.1152l0.8261 -0.4846c0.0934,-0.0544 0.125,-0.1755 0.0698,-0.2679l-0.4849 -0.8262c-0.0543,-0.0936 -0.1743,-0.1249 -0.2679,-0.0706l-0.8261 0.4846c-0.0936,0.0552 -0.125,0.1755 -0.0695,0.269l0.4835 0.8262c0.0552,0.0936 0.1755,0.1249 0.269,0.0695z"/>
    <polygon id="_140070928" class="fil52" points="93.3068,39.6865 93.7857,39.4059 86.942,27.7399 86.4632,28.0214 "/>
    <path id="_140071432" class="fil22" d="M93.2944 39.6941l0.0124 -0.0076 -6.8436 -11.6651 -0.0124 0.0076c-0.6737,0.3951 -0.8987,1.2605 -0.5036,1.9338l5.4126 9.2276c0.3959,0.6724 1.2612,0.8988 1.9346,0.5037z"/>
   </g>
  </g>
  <g id="_140068552">
   <path id="_140070808" class="fil58" d="M53.5155 61.0257c-10.5073,0 -19.0248,-8.5175 -19.0248,-19.0249 0,-10.5074 8.5173,-19.0253 19.0247,-19.0253 10.5074,0 19.0253,8.518 19.0253,19.0253 0.0002,10.5074 -8.5179,19.0249 -19.0252,19.0249z"/>
   <g>
    <polygon id="_140070040" class="fil39" points="48.6964,44.5695 57.6198,44.5695 48.6964,35.6469 "/>
    <polygon id="_140070304" class="fil38" points="58.5124,35.6469 48.6964,35.6469 57.6198,44.5695 58.5124,44.5695 "/>
    <polygon id="_140070280" class="fil39" points="59.8535,35.6469 47.1318,35.6469 47.1318,33.0625 59.8535,33.0625 "/>
    <polygon id="_140070064" class="fil8" points="54.483,44.5695 52.7836,44.5695 52.7836,33.0625 54.483,33.0625 "/>
    <polygon id="_140070160" class="fil59" points="49.2923,30.1501 49.2928,30.151 49.2954,30.148 "/>
    <path id="_140070592" class="fil8" d="M51.4514 29.5168c-0.8216,-0.1878 -1.549,0.2284 -2.0697,0.5735 0.0478,-0.015 0.1023,-0.0092 0.1649,0.023 1.5565,0.8097 3.4292,2.7767 3.4292,2.7767 0,0 -0.2421,-3.08 -1.5244,-3.3732z"/>
    <path id="_140070400" class="fil8" d="M57.7261 30.1133c0.0621,-0.0322 0.1164,-0.038 0.1644,-0.023 -0.5198,-0.3451 -1.2475,-0.7613 -2.0701,-0.5734 -1.2818,0.293 -1.524,3.3731 -1.524,3.3731 0.0001,0 1.8731,-1.967 3.4297,-2.7767z"/>
    <polygon id="_140070424" class="fil59" points="57.9806,30.1501 57.9769,30.1486 57.9797,30.151 "/>
    <path id="_140070544" class="fil60" d="M57.9797 30.151l-0.0028 -0.0024 -0.0864 -0.0583c-0.048,-0.015 -0.1023,-0.0092 -0.1645,0.023 -1.5565,0.8097 -3.4296,2.7767 -3.4296,2.7767 0.0001,0 2.314,-0.1825 3.1035,-0.1825 0.6713,-0.0001 0.9486,-2.1446 0.5798,-2.5565z"/>
    <path id="_140070712" class="fil60" d="M49.5467 30.1133c-0.0626,-0.0322 -0.1173,-0.038 -0.165,-0.023l-0.0863 0.0577 -0.0026 0.003c-0.3686,0.4118 -0.0908,2.5565 0.5806,2.5565 0.7882,-0.0001 3.1024,0.1825 3.1024,0.1825 0,0 -1.8727,-1.967 -3.4291,-2.7767z"/>
    <path id="_140070664" class="fil45" d="M54.0528 32.0661l-0.839 0c-0.2018,0 -0.3659,0.164 -0.3659,0.3659l0 0.2834c0,0.2014 0.164,0.3659 0.3659,0.3659l0.839 0c0.2018,0 0.3657,-0.1645 0.3657,-0.3659l0.0002 -0.2834c0,-0.2021 -0.1641,-0.3659 -0.3659,-0.3659z"/>
   </g>
   <path id="_140069248" class="fil61" d="M60.4802 41.3509l-15.4198 0c-0.1341,0 -0.2427,-0.1083 -0.2427,-0.2426 0,-0.1337 0.1084,-0.2426 0.2425,-0.2426l15.42 0c0.1337,0 0.2426,0.1089 0.2426,0.2426 0,0.1342 -0.1089,0.2426 -0.2426,0.2426z"/>
   <path id="_140069944" class="fil61" d="M59.7476 43.4003l-13.9692 0c-0.1337,0 -0.2421,-0.1085 -0.2421,-0.2427 0,-0.1338 0.1083,-0.2422 0.242,-0.2422l13.9693 0c0.1337,0 0.2425,0.1085 0.2425,0.2422 0.0001,0.1342 -0.109,0.2427 -0.2425,0.2427z"/>
   <path id="_140069776" class="fil61" d="M59.0163 45.4511l-12.5199 0c-0.1342,0 -0.2427,-0.1083 -0.2427,-0.2426 0.0002,-0.1337 0.1085,-0.2421 0.2426,-0.2421l12.52 -0.0002c0.1343,0 0.2425,0.1086 0.2425,0.2423 0,0.1343 -0.1084,0.2426 -0.2425,0.2426z"/>
   <polygon id="_140069872" class="fil61" points="49.4279,47.2583 47.7171,39.0578 "/>
   <path id="_140069584" class="fil61" d="M49.4279 47.5005c-0.1126,0 -0.2132,-0.0779 -0.2375,-0.1925l-1.7106 -8.2002c-0.0275,-0.1313 0.0562,-0.2597 0.1878,-0.2869 0.1284,-0.0259 0.2595,0.0562 0.2869,0.1878l1.7109 8.2003c0.0278,0.131 -0.0564,0.2595 -0.188,0.2869l-0.0495 0.0046z"/>
   <polygon id="_140069512" class="fil61" points="51.6419,47.2583 51.0908,39.0578 "/>
   <path id="_140069632" class="fil61" d="M51.6414 47.5005c-0.1264,0 -0.2328,-0.0978 -0.2417,-0.2257l-0.5511 -8.2003c-0.0083,-0.1338 0.0921,-0.2489 0.2258,-0.2584 0.1311,-0.0102 0.2501,0.0922 0.2584,0.2259l0.5508 8.2001c0.0094,0.1337 -0.0922,0.2495 -0.2259,0.258l-0.0163 0.0004z"/>
   <polygon id="_140069896" class="fil61" points="53.8565,47.2583 54.4644,39.0578 "/>
   <path id="_140069344" class="fil61" d="M53.8565 47.5005l-0.0178 -0.0004c-0.1337,-0.0096 -0.2339,-0.1257 -0.2244,-0.2595l0.6081 -8.2004c0.0106,-0.1337 0.1293,-0.2314 0.2605,-0.2241 0.1337,0.0098 0.2337,0.1264 0.2237,0.2601l-0.6083 8.2001c-0.0092,0.1274 -0.1166,0.2242 -0.2418,0.2242z"/>
   <polygon id="_140069848" class="fil61" points="56.0685,47.2583 57.8382,39.0578 "/>
   <path id="_140068696" class="fil61" d="M56.0691 47.5005l-0.0512 -0.0052c-0.1311,-0.028 -0.2148,-0.1574 -0.1864,-0.288l1.7688 -8.2002c0.0289,-0.131 0.1562,-0.2148 0.2884,-0.1858 0.1311,0.0279 0.2148,0.1574 0.1863,0.288l-1.7691 8.2003c-0.0243,0.1136 -0.1254,0.1909 -0.2368,0.1909z"/>
   <path id="_140068504" class="fil61" d="M60.0023 50.6163l-11.2486 0c-0.9828,0 -1.7825,-0.8001 -1.7825,-1.7828l0.0001 -0.0354c0,-0.9827 0.7995,-1.7823 1.7822,-1.7823l7.9897 0c0.7418,0 1.5802,-0.5906 1.8297,-1.2902l3.4744 -9.7263c0.3173,-0.8892 1.3428,-1.6118 2.2861,-1.6118l2.4783 0c0.1337,0 0.2422,0.1085 0.2422,0.2426 0,0.1337 -0.1085,0.2428 -0.2422,0.2428l-2.4782 -0.0002c-0.7417,0 -1.5792,0.5908 -1.8293,1.2899l-3.4742 9.7261c-0.3174,0.8892 -1.3434,1.6118 -2.2868,1.6118l-7.9895 0c-0.7155,0 -1.2972,0.5823 -1.2972,1.2976l0 0.0353c0,0.7155 0.5817,1.2977 1.297,1.2977l11.2488 -0.0001c0.1341,0 0.2426,0.1084 0.2426,0.2427 0,0.1337 -0.1085,0.2426 -0.2426,0.2426z"/>
   <path id="_140068816" class="fil61" d="M50.636 54.8209c-0.8486,0 -1.5393,-0.6899 -1.5393,-1.5391 0.0001,-0.8486 0.6907,-1.5392 1.5393,-1.5392 0.8486,0 1.5392,0.6907 1.5392,1.5392 0,0.8492 -0.6907,1.5392 -1.5392,1.5391z"/>
   <path id="_140069056" class="fil61" d="M50.636 51.3958c-1.0418,0 -1.8856,0.845 -1.8856,1.8861 0.0001,1.0418 0.8438,1.8857 1.8856,1.8857 1.0423,-0.0002 1.8855,-0.8439 1.8855,-1.8857 0.0001,-1.0411 -0.8432,-1.8861 -1.8855,-1.8861zm0 0.6935c0.6576,0 1.1928,0.5352 1.1928,1.1926 0,0.6575 -0.5353,1.1928 -1.1928,1.1928 -0.6574,0 -1.1929,-0.5352 -1.1929,-1.1928 0,-0.6574 0.5353,-1.1926 1.1929,-1.1926z"/>
   <path id="_140069200" class="fil61" d="M58.3404 54.8209c-0.8496,0 -1.5398,-0.6899 -1.5398,-1.5391 0.0001,-0.8486 0.69,-1.5392 1.5397,-1.5392 0.8486,0 1.5392,0.6907 1.5392,1.5392 0.0001,0.8492 -0.6906,1.5392 -1.5391,1.5391z"/>
   <path id="_140069176" class="fil61" d="M58.3404 51.3958c-1.0429,0 -1.8861,0.845 -1.8861,1.8861 0,1.0418 0.8432,1.8857 1.886,1.8857 1.0408,-0.0002 1.8856,-0.8439 1.8856,-1.8857 0,-1.0411 -0.8448,-1.8861 -1.8855,-1.8861zm0 0.6935c0.6575,0 1.1923,0.5352 1.1923,1.1926 0,0.6575 -0.535,1.1928 -1.1924,1.1928 -0.6579,0 -1.1933,-0.5352 -1.1933,-1.1928 0,-0.6574 0.5354,-1.1926 1.1934,-1.1926z"/>
   <path id="_140068960" class="fil61" d="M57.0123 47.5005l-8.2586 0c-0.9445,0 -1.9673,-0.7253 -2.2784,-1.6176l-1.8518 -5.2909c-0.1616,-0.4621 -0.118,-0.9053 0.1236,-1.2468 0.2421,-0.3413 0.6459,-0.5296 1.1371,-0.5296l15.3282 -0.0001c0.1343,0 0.2426,0.1084 0.2426,0.2427 0,0.1342 -0.1085,0.2427 -0.2426,0.2427l-15.3282 -0.0002c-0.329,0 -0.5928,0.1155 -0.7417,0.3254 -0.1485,0.2089 -0.1701,0.4955 -0.061,0.8055l1.8519 5.2912c0.2447,0.7012 1.0785,1.293 1.8201,1.293l8.2588 0c0.1337,0 0.2426,0.1085 0.2426,0.2427 0,0.1336 -0.1089,0.242 -0.2426,0.242z"/>
   <path id="_140069008" class="fil61" d="M67.4529 34.576c0,0.3195 -0.389,0.5786 -0.8703,0.5786l-1.9696 -0.0002c-0.4812,0 -0.8708,-0.2589 -0.8708,-0.5784 0.0002,-0.3191 0.3896,-0.578 0.8707,-0.578l1.9699 0c0.4811,0 0.8701,0.259 0.8701,0.578z"/>
  </g>
  <g id="_164808128">
   <path id="_140070808_0" class="fil62" d="M188.073 90.8894c-9.2713,0 -16.7868,-7.5154 -16.7868,-16.7868 0,-9.2714 7.5154,-16.7873 16.7867,-16.7873 9.2714,0 16.7873,7.516 16.7873,16.7873 0.0002,9.2713 -7.5159,16.7868 -16.7872,16.7868z"/>
   <path id="_133708600" class="fil63" d="M194.325 87.8453l-0.2118 -1.7035c-0.0751,0.0844 -0.1924,0.4769 -0.3411,0.8459l-0.3823 -0.4769 -1.2148 0.9773c0,0 -1.161,0.0795 -1.4041,0.3823 -0.0663,0.0828 -0.1148,0.372 -0.1148,0.372 0,0.2728 0.4221,0.2221 0.942,0.2221l1.8146 0c0.6169,0 1.067,-0.3065 0.9123,-0.6192z"/>
   <path id="_133708816" class="fil64" d="M188.437 74.5423l-0.1766 -0.1766 -0.047 -0.0306c0.1042,-0.0235 0.0937,-0.0993 0.0937,-0.0993 0.0003,0 -0.3658,-0.2666 -0.5199,-0.4667 -0.1538,-0.2008 -0.4277,-0.1766 -0.4277,-0.1766 0.0003,0 -0.5471,0.4518 -0.6752,0.6191 -0.129,0.1674 0.1986,0.3455 0.1986,0.3455l0.0234 -0.0179 0.5714 0.5239 0.0008 0.1735 0.1485 0.1485 0.1955 -0.0171 0.0024 -0.0024 0.0337 -0.1736 0.1704 -0.0305 0.0025 -0.0016 0.0201 -0.1892 0.1837 -0.0149 0.0023 -0.0022 0.0228 -0.1704 0.1751 -0.026 0.0015 -0.0022 0 -0.2127z"/>
   <polygon id="_133708456" class="fil65" points="186.531,74.4649 187.605,73.3908 186.777,72.562 185.702,73.637 "/>
   <path id="_133708408" class="fil66" d="M187.887 73.4978c0,0 -0.2909,-0.0266 -0.4543,0.1877 -0.1642,0.2134 -0.552,0.4971 -0.552,0.4971 0.0002,0 -0.0235,0.1704 0.3393,0.0924 0.3621,-0.0782 0.5004,-0.2495 0.5097,-0.287l0.4184 0.3464 0.2462 0.1908c0,0 0.3471,-0.1901 0.2103,-0.3683 -0.1367,-0.1775 -0.7178,-0.6591 -0.7176,-0.6591z"/>
   <polygon id="_133708720" class="fil66" points="187.158,74.5494 186.97,74.7377 186.744,74.7377 186.742,74.7362 186.742,74.5095 186.93,74.3211 187.156,74.3211 187.158,74.3233 "/>
   <path id="_133708336" class="fil66" d="M187.428 74.7034l-0.2243 0.2251c-0.0749,0.0734 -0.1855,0.0836 -0.248,0.0211l-0.0022 -0.0024c-0.0625,-0.0616 -0.0532,-0.1736 0.0217,-0.2469l0.2245 -0.2252c0.0751,-0.0742 0.1853,-0.0844 0.2486,-0.0219l0.0016 0.0022c0.0634,0.0627 0.0532,0.1738 -0.0219,0.248z"/>
   <polygon id="_133708648" class="fil66" points="187.575,74.9966 187.396,75.1756 187.176,75.1692 187.174,75.167 187.167,74.9472 187.346,74.769 187.566,74.7745 187.569,74.7767 "/>
   <polygon id="_133708912" class="fil66" points="187.761,75.249 187.603,75.407 187.395,75.3882 187.393,75.3866 187.375,75.1787 187.532,75.0207 187.741,75.0387 187.742,75.0411 "/>
   <polygon id="_133707952" class="fil65" points="188.835,74.447 187.761,73.3728 188.589,72.5456 189.664,73.6197 "/>
   <path id="_133707904" class="fil67" d="M188.026 73.1273l2.7668 -1.7192c0,0 1.4821,-1.7231 1.626,-1.9912 0.2056,-0.3838 0.5855,-0.6418 1.0185,-0.6959l0.0055 -0.0006 0.1895 0.0186c0.6183,0.0603 0.8989,0.4973 0.6079,1.0469 -0.9325,1.7629 -2.7307,2.8231 -2.7307,2.8231 -0.1782,0.1939 -2.5478,1.5479 -2.5478,1.5479l-0.9357 -1.0296z"/>
   <path id="_133707832" class="fil68" d="M192.685 87.1674l1.5676 0.3207 0.3477 -11.5705c0.1033,-1.3119 -2.4095,-4.7963 -2.4095,-4.7963l-0.2547 8.4245 0.7489 7.6216z"/>
   <path id="_133708288" class="fil69" d="M194.114 66.0779c0,0 0.3298,1.4611 0.5518,3.0161 0.112,0.781 -0.4345,5.4492 -0.4345,5.4492l-2.1483 0c0,0 -0.3067,-3.1945 -0.2387,-4.0958 0.1432,-1.9154 0.8913,-2.0725 1.1885,-2.6137 0.0835,-0.1509 -0.0525,-1.4438 -0.0525,-1.4438l1.1337 -0.312z"/>
   <path id="_133707544" class="fil66" d="M191.546 64.7566l-0.0135 -0.1979c0,-0.9216 0.7475,-1.6682 1.6692,-1.6682 0.9217,0 1.6683,0.7466 1.6683,1.6682 0.0002,0.133 -0.0171,0.262 -0.0468,0.3857 -0.0541,0.2289 -0.1556,0.4401 -0.2932,0.6213 -0.2096,0.4136 -0.4886,0.8991 -0.6865,0.9968 -0.3555,0.1767 -1.716,0.617 -2.024,-0.0436 -0.3072,-0.6615 -0.2737,-1.7623 -0.2735,-1.7623z"/>
   <path id="_133708168" class="fil70" d="M192.601 64.182c0,0 0.1571,-0.0789 0.2096,0.2877 0.0517,0.3652 0.2877,0.817 0.2877,0.817 0.0002,0 0.1562,-0.4738 0.3783,-0.5706 0.2229,-0.0977 0.3402,0.0266 0.3792,0.2493 0.0392,0.2227 -0.0257,0.5848 -0.2221,0.7488 -0.1959,0.1658 -0.1961,0.2183 0.1175,0.3488 0.3133,0.1306 0.5363,0.1649 0.5363,0.1649 0,0 0.9662,-1.0695 1.0052,-1.6692 0.0392,-0.5994 -0.1438,-1.6964 -1.3977,-1.9441 -1.2539,-0.2487 -1.9568,0.3392 -2.2265,0.849 -0.2691,0.509 -0.502,0.7966 0,0.8099 0.5028,0.0124 0.9325,-0.0915 0.9325,-0.0915z"/>
   <polygon id="_133707352" class="fil71" points="193.509,68.3294 194.681,67.8798 194.3,66.9683 192.589,67.6493 192.589,68.6913 "/>
   <path id="_133707280" class="fil70" d="M194.967 68.5491c-0.043,-1.1945 -2.0084,-1.0234 -2.6128,0 -0.952,1.6122 -0.7076,1.487 -0.6863,3.4509 0.111,1.5433 -0.1354,5.105 -0.1354,5.105l3.1491 0c0,0 0,-3.1584 0,-4.2303 0,-0.4167 0.3386,-2.8495 0.2854,-4.3256z"/>
   <path id="_133707184" class="fil67" d="M192.291 69.3566l-0.6355 0.6708 0.2807 -1.0522c0.2033,-0.4691 0.9239,-1.2359 1.4048,-1.4127l1.2625 -0.4637 0.3072 1.136 -0.841 0.0439c-0.6161,0.0328 -1.1861,0.3344 -1.5582,0.827l-0.0203 0.0273 -0.2549 -0.2744 0.0547 0.498z"/>
   <polygon id="_133707136" class="fil68" points="192.779,80.7897 192.779,80.781 "/>
   <polygon id="_133706968" class="fil72" points="194.003,74.7588 191.216,76.166 189.061,71.896 191.849,70.4888 "/>
   <path id="_133706896" class="fil67" d="M190.445 73.5213l1.8653 -0.9912c0,0 0.5846,-2.1962 0.5979,-2.5002 0.0173,-0.4355 0.2477,-0.8326 0.6136,-1.0689l0.0056 -0.0031 0.1775 -0.0656c0.5839,-0.2149 1.0265,0.0563 1.0045,0.6777 -0.0733,1.993 -1.2321,3.7308 -1.2321,3.7308 -0.0749,0.2509 -2.5197,1.3713 -2.5197,1.3713l-0.5126 -1.1508z"/>
   <path id="_133707040" class="fil73" d="M189.762 73.8402l0.1501 -0.1759 0.5325 -0.143 0.5152 1.1743 -0.3206 0.1399 -0.1321 0.043c-0.0714,0.0157 -0.1432,0.0195 -0.2128,0.0133 -0.2431,-0.0242 -0.6247,-0.8967 -0.5323,-1.0516z"/>
   <path id="_133702384" class="fil67" d="M182.809 75.905l-0.5808 -3.2054c0,0 0.2821,-2.2553 0.3851,-2.5417 0.1472,-0.4095 0.0829,-0.8645 -0.1673,-1.221l-0.0038 -0.0056 -0.14 -0.1274c-0.4588,-0.4191 -0.9724,-0.3331 -1.1852,0.2511 -0.6808,1.8739 -0.2611,3.9189 -0.2611,3.9189 -0.0234,0.262 0.5614,2.928 0.5614,2.928l1.3917 0.0031z"/>
   <path id="_133702312" class="fil73" d="M182.111 76.9494l0.1181 -0.0093c0.1844,-0.0312 0.3446,-0.1361 0.4503,-0.2823 0.0446,-0.0625 0.0789,-0.1321 0.1009,-0.2079l0.0281 -0.1955 0.0009 -0.3494 -1.3915 -0.0031 -0.0009 0.3501 0.0124 0.1385c0.0149,0.0711 0.0399,0.1376 0.0734,0.2001 0.119,0.2134 0.3464,0.3588 0.6083,0.3588z"/>
   <path id="_133702288" class="fil63" d="M182.62 86.9509l-0.9272 0.3269c-0.197,-0.4144 -0.3541,-0.9851 -0.4441,-1.0875l-0.2087 1.6683c-0.151,0.3065 0.2901,0.6059 0.8935,0.6059l1.7771 0c0.5097,0 0.9225,0.0507 0.9225,-0.2174 0,0 0.1751,-0.279 0.1142,-0.3635 -0.1492,-0.2118 -1.0946,-0.3955 -1.0946,-0.3955l-1.0327 -0.5372z"/>
   <path id="_133702000" class="fil68" d="M182.677 87.2051l-1.5637 0.283 -0.3486 -11.5705c-0.1023,-1.3119 2.4101,-4.7963 2.4101,-4.7963l0.255 8.4245 -0.7528 7.6593z"/>
   <path id="_133702120" class="fil69" d="M181.252 66.0779c0,0 -0.3302,1.4611 -0.5522,3.0161 -0.1117,0.781 0.4339,5.4492 0.4339,5.4492l2.1476 0c0,0 0.3081,-3.1945 0.24,-4.0958 -0.1438,-1.9154 -0.8928,-2.0725 -1.1882,-2.6137 -0.0836,-0.1509 0.0516,-1.4438 0.0516,-1.4438l-1.1327 -0.312z"/>
   <path id="_133700488" class="fil66" d="M183.82 64.7566l0.0127 -0.1979c0,-0.9216 -0.7475,-1.6682 -1.6685,-1.6682 -0.9215,0 -1.6683,0.7466 -1.6683,1.6682 0,0.133 0.0164,0.262 0.0461,0.3857 0.0549,0.2289 0.1555,0.4401 0.294,0.6213 0.2097,0.4136 0.4887,0.8991 0.6848,0.9968 0.3573,0.1767 1.7168,0.617 2.0249,-0.0436 0.308,-0.6615 0.2743,-1.7623 0.2743,-1.7623z"/>
   <path id="_133697848" class="fil70" d="M182.763 64.182c0,0 -0.1565,-0.0789 -0.2081,0.2877 -0.0532,0.3652 -0.2876,0.817 -0.2876,0.817 0,0 -0.1574,-0.4738 -0.3792,-0.5706 -0.2221,-0.0977 -0.3393,0.0266 -0.3785,0.2493 -0.0397,0.2227 0.0259,0.5848 0.222,0.7488 0.1957,0.1658 0.1955,0.2183 -0.1172,0.3488 -0.3142,0.1306 -0.5363,0.1649 -0.5363,0.1649 0,0 -0.9664,-1.0695 -1.0061,-1.6692 -0.039,-0.5994 0.1445,-1.6964 1.3977,-1.9441 1.2547,-0.2487 1.9577,0.3392 2.2265,0.849 0.269,0.509 0.5013,0.7966 0,0.8099 -0.5017,0.0124 -0.9334,-0.0915 -0.9332,-0.0915z"/>
   <polygon id="_133697752" class="fil71" points="181.855,68.3294 180.684,67.8798 181.065,66.9683 182.777,67.6493 182.777,68.6913 "/>
   <path id="_133698064" class="fil70" d="M180.399 68.5491c0.0427,-1.1945 2.0073,-1.0234 2.6132,0 0.4756,0.806 1.179,2.5033 1.2986,4.4796 0.1097,1.8083 -0.136,3.9732 -0.136,3.9732l-3.4906 0.1031c0,0 0,-3.1584 0,-4.2303 0,-0.4167 -0.3378,-2.8495 -0.2852,-4.3256z"/>
   <path id="_133915024" class="fil67" d="M183.075 69.3566l0.6349 0.6708 -0.2799 -1.0522c-0.2041,-0.4691 -0.9259,-1.2359 -1.4059,-1.4127l-1.2625 -0.4637 -0.3071 1.136 0.8403 0.0439c0.617,0.0328 1.1867,0.3344 1.5597,0.827l0.0204 0.0273 0.2542 -0.2744 -0.0541 0.498z"/>
   <path id="_133915192" class="fil67" d="M187.34 73.1273l-2.7665 -1.7192c0,0 -1.4833,-1.7231 -1.6262,-1.9912 -0.2055,-0.3838 -0.5864,-0.6418 -1.0188,-0.6959l-0.0062 -0.0006 -0.1883 0.0186c-0.6185,0.0603 -0.8991,0.4973 -0.6084,1.0469 0.9328,1.7629 2.7309,2.8231 2.7309,2.8231 0.1776,0.1939 2.5479,1.5479 2.5479,1.5479l0.9356 -1.0296z"/>
  </g>
  <g id="_134589520">
   <path id="_140070808_1" class="fil74" d="M18.5889 84.2634c-8.9686,0 -16.2387,-7.27 -16.2387,-16.2387 0,-8.9686 7.27,-16.2391 16.2386,-16.2391 8.9686,0 16.2391,7.2706 16.2391,16.2391 0.0002,8.9686 -7.2705,16.2387 -16.239,16.2387z"/>
   <g>
    <path id="_134587120" class="fil75" d="M17.5218 76.4737l-2.6906 0 -0.2743 0.1758c-0.1417,-1.8126 3.1594,-6.857 3.1594,-6.857l0.0002 6.6848 -0.1947 -0.0036z"/>
    <path id="_134587648" class="fil76" d="M18.4823 76.4737l2.1212 0 0.3485 0.1758c0.1417,-1.8126 -3.2357,-6.857 -3.2357,-6.857l0.0002 6.8745 0.7658 -0.1933z"/>
    <polygon id="_134587504" class="fil69" points="16.1452,66.5745 17.7165,67.3348 17.7165,63.6697 16.7291,63.6697 "/>
    <polygon id="_134587384" class="fil77" points="19.3639,66.5745 17.7165,67.3348 17.7165,63.6697 18.7792,63.6697 "/>
    <path id="_134587288" class="fil69" d="M17.7165 64.6662l0 0.0076 0 -6.0471 0.3744 0c0.919,0 1.9005,0.9681 1.9005,1.7883l-0.3244 2.2618c-0.1334,0.9315 -0.9478,1.708 -1.9505,1.9894z"/>
    <path id="_134587192" class="fil69" d="M19.4851 62.9137l0.0036 0c0.1945,0 0.361,-0.1622 0.397,-0.3873l0.1707 -1.0535c0.0232,-0.1291 -0.101,-0.2249 -0.1919,-0.1489l-0.3083 0.2575 -0.0711 1.3322z"/>
    <path id="_134586616" class="fil66" d="M17.7165 64.6662l0 0.0076 0 -6.0471c-0.9184,0 -2.2732,0.9681 -2.2732,1.7883l0.3245 2.2618c0.1333,0.9315 0.9457,1.708 1.9487,1.9894z"/>
    <path id="_134586880" class="fil66" d="M15.9497 62.9137l-0.0034 0c-0.1939,0 -0.3612,-0.1622 -0.3972,-0.3873l-0.1705 -1.0535c-0.0234,-0.1291 0.1007,-0.2249 0.1925,-0.1489l0.3074 0.2575 0.0712 1.3322z"/>
    <path id="_133914856" class="fil68" d="M19.6162 59.19c-0.4964,-0.4662 -0.9584,-0.7737 -1.8999,-0.7503 -0.9422,0.0226 -1.5867,0.3067 -1.797,0.5234 -0.2101,0.2149 -0.6305,0.875 -0.5028,1.8307 0.1278,0.9562 0.522,0.9888 0.522,0.9888 0,-0.0002 0.0762,-0.7279 0.1911,-1.4098 0.1144,-0.6826 0.2927,-0.5571 0.2927,-0.5571 0,-0.0002 2.1058,0.8052 2.8329,0.9921 0.2722,0.4846 0.3716,1.1221 0.3716,1.1221 0.0002,0 0.3314,-0.9254 0.3844,-1.3751 0.0514,-0.4508 0.1008,-0.8986 -0.395,-1.3648z"/>
    <path id="_133914928" class="fil78" d="M11.064 75.8003l-1.0911 -0.498 2.6629 -2.9211c0,0 0.3965,-5.1685 0.572,-5.5902 0.2371,-0.5699 0.7384,-0.9851 1.3406,-1.1198l0.0085 -0.0022 0 3.871 -0.7764 4.0649 -2.7165 2.1954z"/>
    <path id="_133915000" class="fil79" d="M27.7786 66.5851c0.3286,-1.0219 0.4252,-0.8717 0.3284,-1.0219 -0.2177,-0.342 -0.2628,0.8124 -1.6832,1.1637 -0.296,0.0733 -0.2265,-0.2399 0.0422,-0.4132 0.2675,-0.1743 0.6643,-0.3097 0.45,-0.5234 0.0002,0 -1.0113,0.0578 -1.3194,0.8872 -0.2595,0.6967 -0.1433,0.5993 -0.2491,0.6191l0.7047 0.7561c0,0 1.3969,-0.4456 1.7264,-1.4676z"/>
    <path id="_133915072" class="fil80" d="M20.6367 75.15l0.3153 -5.61c0,-0.9034 1.5303,-4.1891 -0.6397,-3.9218l-1.1269 0c-0.5593,0.5585 -0.9106,0.8724 -1.4691,1.4309l0.0002 8.1009c1.4893,0 1.4539,0.0002 2.9202,0z"/>
    <path id="_133915120" class="fil80" d="M26.0522 68.0527l-0.6207 -0.9584 -1.9689 2.3257c0,0 -0.9959,-2.2297 -1.1609,-2.629 -0.2368,-0.5699 -0.739,-0.9851 -1.3413,-1.1198l-0.0084 -0.0022 0.0034 3.2173 1.9952 2.6395c0.2243,0.2977 0.6657,0.3125 0.909,0.0298l2.1926 -3.5029z"/>
    <path id="_133915504" class="fil78" d="M17.0338 67.7918c0,0 -0.7097,-0.414 -1.3704,-1.4268 -0.1981,-0.3024 -0.3308,-0.5457 -0.426,-0.7468l-0.0408 0c-2.1699,-0.2673 -0.6397,3.0184 -0.6397,3.9218l0.3069 5.61c1.1051,0 2.0479,0.0599 2.8525,0.0002l0.0002 -8.1011 -0.6827 0.7427z"/>
    <path id="_133915528" class="fil81" d="M16.3243 65.6182l-0.4254 0 -0.6615 0c0.0952,0.2009 0.2277,0.4444 0.426,0.7468 0.6609,1.0128 1.3702,1.4268 1.3702,1.4268l0.6829 -0.7427c-0.5586,-0.5585 -0.8338,-0.8724 -1.3922,-1.4309z"/>
    <path id="_133915576" class="fil78" d="M19.1078 65.6182l0.4258 0 0.6609 0c-0.0951,0.2009 -0.2279,0.4444 -0.4252,0.7468 -0.6615,1.0128 -1.3709,1.4268 -1.3709,1.4268l-0.6819 -0.7427c0.5585,-0.5585 0.8326,-0.8724 1.3913,-1.4309z"/>
    <polygon id="_133915648" class="fil75" points="17.0338,67.7918 17.5528,68.3609 17.0338,70.9151 17.7179,71.9081 17.7179,66.9328 "/>
    <polygon id="_133915720" class="fil76" points="18.4012,67.7918 17.882,68.3609 18.4012,70.9151 17.7179,71.9081 17.7179,66.9328 "/>
    <polygon id="_133915744" class="fil82" points="20.4236,69.1803 18.7686,69.1803 18.7686,68.1154 20.4236,68.1154 "/>
    <polygon id="_133915840" class="fil83" points="27.1601,76.2369 19.7975,76.2369 19.7975,74.0091 27.1601,74.0091 "/>
    <path id="_133915864" class="fil68" d="M25.2596 71.2516l-3.5616 0c-0.2982,0 -0.5649,0.1869 -0.6657,0.4684l-0.7298 2.0308c-0.0452,0.1255 0.0477,0.2583 0.1811,0.2583l5.991 0c0.1327,0 0.2257,-0.1328 0.1805,-0.2583l-0.7298 -2.0308c-0.1008,-0.2815 -0.3675,-0.4684 -0.6657,-0.4684z"/>
    <polygon id="_133915936" class="fil70" points="25.1298,70.4511 21.828,70.4511 21.828,71.2516 25.1298,71.2516 "/>
    <polygon id="_133915984" class="fil70" points="24.6257,70.6958 23.0798,70.6994 23.0798,68.5822 24.6051,68.5788 "/>
    <polygon id="_133916152" class="fil68" points="22.7693,67.834 25.1298,67.834 25.1298,68.9237 22.7693,68.9237 "/>
    <polygon id="_133916272" class="fil81" points="27.5437,68.0527 26.1621,67.8412 26.6623,64.5823 28.0431,64.7938 "/>
    <path id="_133916368" class="fil79" d="M26.466 66.3135c0.2675,-0.1741 0.6643,-0.3095 0.45,-0.5232 0.0002,0 -1.1821,0.0854 -1.4909,0.9146 -0.2587,0.6975 0.6269,1.3478 0.6269,1.3478 0.0002,0 0.1453,-1.5657 0.414,-1.7392z"/>
    <polygon id="_133916824" class="fil68" points="28.3365,77.0661 5.7303,77.0661 5.7303,76.0789 28.3365,76.0789 "/>
    <path id="_133916968" class="fil84" d="M8.3812 70.5259l-0.2081 0 0 -1.5685c0,-0.4661 0.3794,-0.8448 0.845,-0.8448 0.4802,0 0.8588,0.3787 0.8588,0.8448l0.0002 1.467 -0.2067 0 0 -1.467c0,-0.3512 -0.2862,-0.6375 -0.6375,-0.6375 -0.3654,0 -0.6517,0.2863 -0.6517,0.6375l0 1.5685z"/>
    <path id="_133917112" class="fil85" d="M9.3292 70.5259l-0.2081 0 0 -1.5685c0,-0.4661 0.3786,-0.8448 0.844,-0.8448 0.481,0 0.8598,0.3787 0.8598,0.8448l0 1.467 -0.2081 0 0 -1.467c0,-0.3512 -0.2857,-0.6375 -0.6361,-0.6375 -0.3667,0 -0.6517,0.2863 -0.6517,0.6375l0.0002 1.5685z"/>
    <polygon id="_133917448" class="fil86" points="8.2247,69.6387 7.6634,69.6387 7.0315,76.0789 8.2247,75.6903 "/>
    <polygon id="_133917664" class="fil87" points="8.2247,69.6387 8.2247,75.6903 9.4171,76.0789 8.7854,69.6387 "/>
    <polygon id="_133917952" class="fil88" points="8.2247,75.6903 7.0315,76.0789 9.4171,76.0789 "/>
    <polygon id="_133919368" class="fil89" points="8.7854,69.6387 9.4171,76.0789 12.2268,76.0789 11.3304,69.6387 "/>
   </g>
  </g>
 </g>
</svg>
